<svg id="SvgjsSvg1008" xmlns="http://www.w3.org/2000/svg" version="1.1" xmlns:xlink="http://www.w3.org/1999/xlink" xmlns:svgjs="http://svgjs.com/svgjs" width="168" height="224" viewBox="0 0 168 224"><title>Page 1</title><desc>Created with Avocode.</desc><defs id="SvgjsDefs1009"></defs><path id="SvgjsPath1010" d="M1133.76 4614.42L1131.76 4614.42L1131.76 4539.64C1131.76 4538.7300000000005 1131.03 4538 1130.12 4538L1112 4538L1112 4536L1130.12 4536C1132.1299999999999 4536 1133.76 4537.63 1133.76 4539.64Z " fill="#50637a" fill-opacity="1" transform="matrix(1,0,0,1,-986,-4398)"></path><path id="SvgjsPath1011" d="M1007 4614.42L1005 4614.42L1005 4539.64C1005 4537.63 1006.63 4536 1008.64 4536L1027.75 4536L1027.75 4538L1008.64 4538C1007.73 4538 1007 4538.73 1007 4539.64Z " fill="#50637a" fill-opacity="1" transform="matrix(1,0,0,1,-986,-4398)"></path><path id="SvgjsPath1012" d="M1128.2 4614.82L1127.2 4614.82L1127.2 4544.259999999999C1127.2 4543.5599999999995 1126.64 4542.999999999999 1125.95 4542.999999999999L1115 4542.999999999999L1115 4541.999999999999L1125.95 4541.999999999999C1127.19 4541.999999999999 1128.2 4543.009999999999 1128.2 4544.259999999999Z " fill="#50637a" fill-opacity="1" transform="matrix(1,0,0,1,-986,-4398)"></path><path id="SvgjsPath1013" d="M1012 4614.82L1011 4614.82L1011 4544.259999999999C1011 4543.009999999999 1012.01 4541.999999999999 1013.26 4541.999999999999L1024.33 4541.999999999999L1024.33 4542.999999999999L1013.2599999999999 4542.999999999999C1012.5599999999998 4542.999999999999 1011.9999999999999 4543.5599999999995 1011.9999999999999 4544.259999999999Z " fill="#50637a" fill-opacity="1" transform="matrix(1,0,0,1,-986,-4398)"></path><path id="SvgjsPath1014" d="M988 4615L988 4617.52C988 4618.370000000001 988.69 4619.06 989.55 4619.06L1148.79 4619.06C1150.29 4619.06 1151.51 4617.85 1151.51 4616.35L1151.51 4615ZM989.55 4621.06C987.5899999999999 4621.06 986 4619.4800000000005 986 4617.52L986 4613L1153.51 4613L1153.51 4616.35C1153.51 4618.950000000001 1151.39 4621.06 1148.79 4621.06Z " fill="#50637a" fill-opacity="1" transform="matrix(1,0,0,1,-986,-4398)"></path><path id="SvgjsPath1015" d="M1091.68 4562.21C1091.72 4558.36 1091.98 4544.46 1093.44 4538.56C1094.3400000000001 4534.950000000001 1095.3300000000002 4531.740000000001 1096.29 4528.64C1099.81 4517.320000000001 1103.44 4505.6 1103.44 4471.22C1103.44 4431.5 1075.06 4404.71 1070.44 4400.610000000001C1065.77 4404.6900000000005 1037 4431.490000000001 1037 4471.22C1037 4505.6 1040.63 4517.320000000001 1044.15 4528.64C1045.1100000000001 4531.740000000001 1046.1100000000001 4534.950000000001 1047 4538.56C1048.46 4544.46 1048.72 4558.360000000001 1048.76 4562.21ZM1093.67 4564.21L1046.77 4564.21L1046.77 4563.21C1046.77 4559.57 1046.48 4544.78 1045.06 4539.04C1044.1799999999998 4535.49 1043.19 4532.31 1042.24 4529.23C1038.68 4517.7699999999995 1035 4505.9 1035 4471.219999999999C1035 4427.23 1069.46 4398.799999999999 1069.81 4398.509999999999L1070.45 4397.999999999999L1071.0800000000002 4398.5199999999995C1071.42 4398.799999999999 1105.44 4427.23 1105.44 4471.219999999999C1105.44 4505.9 1101.76 4517.7699999999995 1098.2 4529.23C1097.25 4532.3099999999995 1096.27 4535.49 1095.39 4539.04C1093.96 4544.78 1093.67 4559.57 1093.67 4563.21Z " fill="#a8b1c1" fill-opacity="1" transform="matrix(1,0,0,1,-986,-4398)"></path><path id="SvgjsPath1016" d="M1077 4539L1094.27 4539L1094.27 4538L1077 4538Z " fill="#a8b1c1" fill-opacity="1" transform="matrix(1,0,0,1,-986,-4398)"></path><path id="SvgjsPath1017" d="M1046 4539L1063.98 4539L1063.98 4538L1046 4538Z " fill="#a8b1c1" fill-opacity="1" transform="matrix(1,0,0,1,-986,-4398)"></path><path id="SvgjsPath1018" d="M1064 4555.44L1076.13 4555.44L1076.13 4526L1064 4526ZM1063 4525L1077.13 4525L1077.13 4556.44L1063 4556.44Z " fill="#a8b1c1" fill-opacity="1" transform="matrix(1,0,0,1,-986,-4398)"></path><path id="SvgjsPath1019" d="M1054 4563.41L1055 4563.41L1055 4539L1054 4539Z " fill="#a8b1c1" fill-opacity="1" transform="matrix(1,0,0,1,-986,-4398)"></path><path id="SvgjsPath1020" d="M1084 4563.41L1085 4563.41L1085 4539L1084 4539Z " fill="#a8b1c1" fill-opacity="1" transform="matrix(1,0,0,1,-986,-4398)"></path><path id="SvgjsPath1021" d="M1070 4562.98L1071 4562.98L1071 4556L1070 4556Z " fill="#a8b1c1" fill-opacity="1" transform="matrix(1,0,0,1,-986,-4398)"></path><path id="SvgjsPath1022" d="M1052 4445.74C1052 4455.53 1059.96 4463.49 1069.74 4463.49C1079.53 4463.49 1087.49 4455.53 1087.49 4445.74C1087.49 4435.96 1079.53 4428 1069.74 4428C1059.96 4428 1052 4435.96 1052 4445.74ZM1050 4445.74C1050 4434.86 1058.86 4426 1069.74 4426C1080.63 4426 1089.49 4434.86 1089.49 4445.74C1089.49 4456.63 1080.63 4465.49 1069.74 4465.49C1058.86 4465.49 1050 4456.63 1050 4445.74Z " fill="#a8b1c1" fill-opacity="1" transform="matrix(1,0,0,1,-986,-4398)"></path><path id="SvgjsPath1023" d="M1055.37 4415.73L1055 4414.799999999999C1059.67 4412.94 1064.71 4411.999999999999 1069.97 4411.999999999999C1075.04 4411.999999999999 1079.91 4412.879999999999 1084.44 4414.599999999999L1084.0900000000001 4415.539999999999C1079.67 4413.849999999999 1074.92 4412.999999999999 1069.9700000000003 4412.999999999999C1064.8300000000002 4412.999999999999 1059.9200000000003 4413.919999999999 1055.3700000000003 4415.729999999999 " fill="#a8b1c1" fill-opacity="1" transform="matrix(1,0,0,1,-986,-4398)"></path><path id="SvgjsPath1024" d="M1056 4445.33L1055 4445.33C1055 4436.88 1061.88 4430 1070.33 4430L1070.33 4431C1062.4299999999998 4431 1056 4437.43 1056 4445.33 " fill="#a8b1c1" fill-opacity="1" transform="matrix(1,0,0,1,-986,-4398)"></path><path id="SvgjsPath1025" d="M1062.83 4458.48C1060.37 4457.0599999999995 1058.35 4454.98 1057 4452.469999999999L1057.88 4451.999999999999C1059.14 4454.339999999999 1061.0300000000002 4456.279999999999 1063.3300000000002 4457.619999999999Z " fill="#a8b1c1" fill-opacity="1" transform="matrix(1,0,0,1,-986,-4398)"></path><path id="SvgjsPath1026" d="M1042.04 4603.51C1038.1599999999999 4603.51 1035 4600.35 1035 4596.47C1035 4592.58 1038.16 4589.43 1042.04 4589.43L1042.04 4590.43C1038.71 4590.43 1036 4593.14 1036 4596.47C1036 4599.8 1038.71 4602.51 1042.04 4602.51C1045.37 4602.51 1048.08 4599.8 1048.08 4596.47L1048.08 4569L1049.08 4569L1049.08 4596.47C1049.08 4600.35 1045.9199999999998 4603.51 1042.04 4603.51 " fill="#a8b1c1" fill-opacity="1" transform="matrix(1,0,0,1,-986,-4398)"></path><path id="SvgjsPath1027" d="M1097.04 4603.51C1093.1599999999999 4603.51 1090 4600.35 1090 4596.47L1090 4569L1091 4569L1091 4596.47C1091 4599.8 1093.71 4602.51 1097.04 4602.51C1100.37 4602.51 1103.08 4599.8 1103.08 4596.47C1103.08 4593.14 1100.37 4590.43 1097.04 4590.43L1097.04 4589.43C1100.92 4589.43 1104.08 4592.58 1104.08 4596.47C1104.08 4600.35 1100.9199999999998 4603.51 1097.04 4603.51 " fill="#a8b1c1" fill-opacity="1" transform="matrix(1,0,0,1,-986,-4398)"></path><path id="SvgjsPath1028" d="M1063 4603.01L1064 4603.01L1064 4569L1063 4569Z " fill="#a8b1c1" fill-opacity="1" transform="matrix(1,0,0,1,-986,-4398)"></path><path id="SvgjsPath1029" d="M1077 4603.01L1078 4603.01L1078 4569L1077 4569Z " fill="#a8b1c1" fill-opacity="1" transform="matrix(1,0,0,1,-986,-4398)"></path><path id="SvgjsPath1030" d="M1070 4589.93L1071 4589.93L1071 4569L1070 4569Z " fill="#a8b1c1" fill-opacity="1" transform="matrix(1,0,0,1,-986,-4398)"></path><path id="SvgjsPath1031" d="M1054 4589.06L1055 4589.06L1055 4569L1054 4569Z " fill="#a8b1c1" fill-opacity="1" transform="matrix(1,0,0,1,-986,-4398)"></path><path id="SvgjsPath1032" d="M1054 4603.72L1055 4603.72L1055 4595L1054 4595Z " fill="#a8b1c1" fill-opacity="1" transform="matrix(1,0,0,1,-986,-4398)"></path><path id="SvgjsPath1033" d="M1084 4589.06L1085 4589.06L1085 4569L1084 4569Z " fill="#a8b1c1" fill-opacity="1" transform="matrix(1,0,0,1,-986,-4398)"></path><path id="SvgjsPath1034" d="M1084 4603.72L1085 4603.72L1085 4595L1084 4595Z " fill="#a8b1c1" fill-opacity="1" transform="matrix(1,0,0,1,-986,-4398)"></path><path id="SvgjsPath1035" d="M1046.66 4547.07L1026.22 4547.07C1025.02 4547.07 1023.9300000000001 4546.4 1023.37 4545.34C1022.8100000000001 4544.27 1022.89 4543 1023.57 4542.01L1039.49 4519L1041.14 4520.14L1025.22 4543.150000000001C1024.96 4543.530000000001 1024.93 4544.000000000001 1025.14 4544.410000000001C1025.3600000000001 4544.820000000001 1025.76 4545.070000000001 1026.22 4545.070000000001L1046.66 4545.070000000001Z " fill="#a8b1c1" fill-opacity="1" transform="matrix(1,0,0,1,-986,-4398)"></path><path id="SvgjsPath1036" d="M1113.43 4547.07L1093 4547.07L1093 4545.07L1113.43 4545.07C1113.9 4545.07 1114.3 4544.82 1114.52 4544.41C1114.73 4544 1114.7 4543.53 1114.44 4543.15L1098.52 4520.139999999999L1100.17 4518.999999999999L1116.0800000000002 4542.009999999999C1116.7700000000002 4542.999999999999 1116.8500000000001 4544.2699999999995 1116.2900000000002 4545.339999999999C1115.7300000000002 4546.4 1114.64 4547.069999999999 1113.4300000000003 4547.069999999999 " fill="#a8b1c1" fill-opacity="1" transform="matrix(1,0,0,1,-986,-4398)"></path></svg>