<svg id="SvgjsSvg1021" xmlns="http://www.w3.org/2000/svg" version="1.1" xmlns:xlink="http://www.w3.org/1999/xlink" xmlns:svgjs="http://svgjs.com/svgjs" width="32" height="30" viewBox="0 0 32 30"><title>Fill 114</title><desc>Created with Avocode.</desc><defs id="SvgjsDefs1022"></defs><path id="SvgjsPath1023" d="M1085 270.32C1085 267.39 1087.39 265 1090.32 265C1093.25 265 1095.6299999999999 267.39 1095.6299999999999 270.32C1095.6299999999999 273.25 1093.2499999999998 275.63 1090.32 275.63C1087.3899999999999 275.63 1085 273.25 1085 270.32ZM1084 270.32C1084 273.8 1086.83 276.63 1090.32 276.63C1093.8 276.63 1096.6299999999999 273.8 1096.6299999999999 270.32C1096.6299999999999 266.83 1093.8 264 1090.32 264C1086.83 264 1084 266.83 1084 270.32Z " fill="#eb4d4c" fill-opacity="1" transform="matrix(1,0,0,1,-1084,-264)"></path><path id="SvgjsPath1024" d="M1085 287.32C1085 284.39 1087.39 282 1090.32 282C1093.25 282 1095.6299999999999 284.39 1095.6299999999999 287.32C1095.6299999999999 290.25 1093.2499999999998 292.63 1090.32 292.63C1087.3899999999999 292.63 1085 290.25 1085 287.32ZM1084 287.32C1084 290.8 1086.83 293.63 1090.32 293.63C1093.8 293.63 1096.6299999999999 290.8 1096.6299999999999 287.32C1096.6299999999999 283.83 1093.8 281 1090.32 281C1086.83 281 1084 283.83 1084 287.32Z " fill="#eb4d4c" fill-opacity="1" transform="matrix(1,0,0,1,-1084,-264)"></path><path id="SvgjsPath1025" d="M1099 284L1106 284L1106 283L1099 283Z " fill="#eb4d4c" fill-opacity="1" transform="matrix(1,0,0,1,-1084,-264)"></path><path id="SvgjsPath1026" d="M1099 287L1115 287L1115 286L1099 286Z " fill="#eb4d4c" fill-opacity="1" transform="matrix(1,0,0,1,-1084,-264)"></path><path id="SvgjsPath1027" d="M1099 291L1115 291L1115 290L1099 290Z " fill="#eb4d4c" fill-opacity="1" transform="matrix(1,0,0,1,-1084,-264)"></path><path id="SvgjsPath1028" d="M1100 266L1107 266L1107 265L1100 265Z " fill="#eb4d4c" fill-opacity="1" transform="matrix(1,0,0,1,-1084,-264)"></path><path id="SvgjsPath1029" d="M1100 270L1116 270L1116 269L1100 269Z " fill="#eb4d4c" fill-opacity="1" transform="matrix(1,0,0,1,-1084,-264)"></path><path id="SvgjsPath1030" d="M1100 273L1116 273L1116 272L1100 272Z " fill="#eb4d4c" fill-opacity="1" transform="matrix(1,0,0,1,-1084,-264)"></path><path id="SvgjsPath1031" d="M1100 277L1116 277L1116 276L1100 276Z " fill="#eb4d4c" fill-opacity="1" transform="matrix(1,0,0,1,-1084,-264)"></path></svg>