<svg id="SvgjsSvg1070" xmlns="http://www.w3.org/2000/svg" version="1.1" xmlns:xlink="http://www.w3.org/1999/xlink" xmlns:svgjs="http://svgjs.com/svgjs" width="193" height="30" viewBox="0 0 193 30"><title>Fill 106</title><desc>Created with Avocode.</desc><defs id="SvgjsDefs1071"></defs><path id="SvgjsPath1072" d="M1155.57 271.39L1152.23 274.69L1152.93 275.37L1157.5800000000002 270.71L1152.8600000000001 266L1152.15 266.72L1155.77 270.39000000000004L1146.49 270.39000000000004C1142.99 270.39000000000004 1140 273.15000000000003 1140 276.65000000000003L1140 281.81000000000006C1140 284.64000000000004 1137.83 287.39000000000004 1135 287.39000000000004L1130 287.39000000000004L1130 288.39000000000004L1135 288.39000000000004C1138.38 288.39000000000004 1141 285.19000000000005 1141 281.81000000000006L1141 276.65000000000003C1141 273.70000000000005 1143.54 271.39000000000004 1146.49 271.39000000000004Z " fill="#eb4d4c" fill-opacity="1" transform="matrix(1,0,0,1,-1047,-264)"></path><path id="SvgjsPath1073" d="M1152.15 283.16L1155.77 287L1152.1 287C1149.27 287 1147 284.25 1147 281.42L1147 276L1146 276L1146 281.42C1146 284.8 1148.72 288 1152.1 288L1155.56 288L1152.23 291.12L1152.93 291.71L1157.5800000000002 287.01L1152.8600000000001 282.37Z " fill="#eb4d4c" fill-opacity="1" transform="matrix(1,0,0,1,-1047,-264)"></path><path id="SvgjsPath1074" d="M1130 271L1141 271L1141 270L1130 270Z " fill="#eb4d4c" fill-opacity="1" transform="matrix(1,0,0,1,-1047,-264)"></path><path id="SvgjsPath1075" d="M1048 275L1059 275L1059 265L1048 265ZM1047 264L1060 264L1060 276L1047 276Z " fill="#eb4d4c" fill-opacity="1" transform="matrix(1,0,0,1,-1047,-264)"></path><path id="SvgjsPath1076" d="M1048 292L1059 292L1059 281L1048 281ZM1047 280L1060 280L1060 293L1047 293Z " fill="#eb4d4c" fill-opacity="1" transform="matrix(1,0,0,1,-1047,-264)"></path><path id="SvgjsPath1077" d="M1085 270.32C1085 267.39 1087.39 265 1090.32 265C1093.25 265 1095.6299999999999 267.39 1095.6299999999999 270.32C1095.6299999999999 273.25 1093.2499999999998 275.63 1090.32 275.63C1087.3899999999999 275.63 1085 273.25 1085 270.32ZM1084 270.32C1084 273.8 1086.83 276.63 1090.32 276.63C1093.8 276.63 1096.6299999999999 273.8 1096.6299999999999 270.32C1096.6299999999999 266.83 1093.8 264 1090.32 264C1086.83 264 1084 266.83 1084 270.32Z " fill="#eb4d4c" fill-opacity="1" transform="matrix(1,0,0,1,-1047,-264)"></path><path id="SvgjsPath1078" d="M1085 287.32C1085 284.39 1087.39 282 1090.32 282C1093.25 282 1095.6299999999999 284.39 1095.6299999999999 287.32C1095.6299999999999 290.25 1093.2499999999998 292.63 1090.32 292.63C1087.3899999999999 292.63 1085 290.25 1085 287.32ZM1084 287.32C1084 290.8 1086.83 293.63 1090.32 293.63C1093.8 293.63 1096.6299999999999 290.8 1096.6299999999999 287.32C1096.6299999999999 283.83 1093.8 281 1090.32 281C1086.83 281 1084 283.83 1084 287.32Z " fill="#eb4d4c" fill-opacity="1" transform="matrix(1,0,0,1,-1047,-264)"></path><path id="SvgjsPath1079" d="M1063 266L1070 266L1070 265L1063 265Z " fill="#eb4d4c" fill-opacity="1" transform="matrix(1,0,0,1,-1047,-264)"></path><path id="SvgjsPath1080" d="M1063 270L1079 270L1079 269L1063 269Z " fill="#eb4d4c" fill-opacity="1" transform="matrix(1,0,0,1,-1047,-264)"></path><path id="SvgjsPath1081" d="M1063 273L1079 273L1079 272L1063 272Z " fill="#eb4d4c" fill-opacity="1" transform="matrix(1,0,0,1,-1047,-264)"></path><path id="SvgjsPath1082" d="M1099 284L1106 284L1106 283L1099 283Z " fill="#eb4d4c" fill-opacity="1" transform="matrix(1,0,0,1,-1047,-264)"></path><path id="SvgjsPath1083" d="M1099 287L1115 287L1115 286L1099 286Z " fill="#eb4d4c" fill-opacity="1" transform="matrix(1,0,0,1,-1047,-264)"></path><path id="SvgjsPath1084" d="M1099 291L1115 291L1115 290L1099 290Z " fill="#eb4d4c" fill-opacity="1" transform="matrix(1,0,0,1,-1047,-264)"></path><path id="SvgjsPath1085" d="M1100 266L1107 266L1107 265L1100 265Z " fill="#eb4d4c" fill-opacity="1" transform="matrix(1,0,0,1,-1047,-264)"></path><path id="SvgjsPath1086" d="M1100 270L1116 270L1116 269L1100 269Z " fill="#eb4d4c" fill-opacity="1" transform="matrix(1,0,0,1,-1047,-264)"></path><path id="SvgjsPath1087" d="M1100 273L1116 273L1116 272L1100 272Z " fill="#eb4d4c" fill-opacity="1" transform="matrix(1,0,0,1,-1047,-264)"></path><path id="SvgjsPath1088" d="M1100 277L1116 277L1116 276L1100 276Z " fill="#eb4d4c" fill-opacity="1" transform="matrix(1,0,0,1,-1047,-264)"></path><path id="SvgjsPath1089" d="M1063 284L1070 284L1070 283L1063 283Z " fill="#eb4d4c" fill-opacity="1" transform="matrix(1,0,0,1,-1047,-264)"></path><path id="SvgjsPath1090" d="M1063 287L1079 287L1079 286L1063 286Z " fill="#eb4d4c" fill-opacity="1" transform="matrix(1,0,0,1,-1047,-264)"></path><path id="SvgjsPath1091" d="M1063 291L1079 291L1079 290L1063 290Z " fill="#eb4d4c" fill-opacity="1" transform="matrix(1,0,0,1,-1047,-264)"></path><path id="SvgjsPath1092" d="M1063 294L1079 294L1079 293L1063 293Z " fill="#eb4d4c" fill-opacity="1" transform="matrix(1,0,0,1,-1047,-264)"></path><path id="SvgjsPath1093" d="M1223 284L1231 284L1231 283L1223 283Z " fill="#eb4d4c" fill-opacity="1" transform="matrix(1,0,0,1,-1047,-264)"></path><path id="SvgjsPath1094" d="M1223 287L1240 287L1240 286L1223 286Z " fill="#eb4d4c" fill-opacity="1" transform="matrix(1,0,0,1,-1047,-264)"></path><path id="SvgjsPath1095" d="M1223 291L1240 291L1240 290L1223 290Z " fill="#eb4d4c" fill-opacity="1" transform="matrix(1,0,0,1,-1047,-264)"></path><path id="SvgjsPath1096" d="M1224 266L1231 266L1231 265L1224 265Z " fill="#eb4d4c" fill-opacity="1" transform="matrix(1,0,0,1,-1047,-264)"></path><path id="SvgjsPath1097" d="M1224 270L1240 270L1240 269L1224 269Z " fill="#eb4d4c" fill-opacity="1" transform="matrix(1,0,0,1,-1047,-264)"></path><path id="SvgjsPath1098" d="M1224 273L1240 273L1240 272L1224 272Z " fill="#eb4d4c" fill-opacity="1" transform="matrix(1,0,0,1,-1047,-264)"></path><path id="SvgjsPath1099" d="M1224 277L1240 277L1240 276L1224 276Z " fill="#eb4d4c" fill-opacity="1" transform="matrix(1,0,0,1,-1047,-264)"></path><path id="SvgjsPath1100" d="M1173 275L1183 275L1183 265L1173 265ZM1172 264L1184 264L1184 276L1172 276Z " fill="#eb4d4c" fill-opacity="1" transform="matrix(1,0,0,1,-1047,-264)"></path><path id="SvgjsPath1101" d="M1173 292L1183 292L1183 281L1173 281ZM1172 280L1184 280L1184 293L1172 293Z " fill="#eb4d4c" fill-opacity="1" transform="matrix(1,0,0,1,-1047,-264)"></path><path id="SvgjsPath1102" d="M1209 270.32C1209 267.39 1211.38 265 1214.32 265C1217.25 265 1219.6299999999999 267.39 1219.6299999999999 270.32C1219.6299999999999 273.25 1217.2499999999998 275.63 1214.32 275.63C1211.3799999999999 275.63 1209 273.25 1209 270.32ZM1208 270.32C1208 273.8 1210.83 276.63 1214.32 276.63C1217.8 276.63 1220.6299999999999 273.8 1220.6299999999999 270.32C1220.6299999999999 266.83 1217.8 264 1214.32 264C1210.83 264 1208 266.83 1208 270.32Z " fill="#eb4d4c" fill-opacity="1" transform="matrix(1,0,0,1,-1047,-264)"></path><path id="SvgjsPath1103" d="M1209 287.32C1209 284.39 1211.38 282 1214.32 282C1217.25 282 1219.6299999999999 284.39 1219.6299999999999 287.32C1219.6299999999999 290.25 1217.2499999999998 292.63 1214.32 292.63C1211.3799999999999 292.63 1209 290.25 1209 287.32ZM1208 287.32C1208 290.8 1210.83 293.63 1214.32 293.63C1217.8 293.63 1220.6299999999999 290.8 1220.6299999999999 287.32C1220.6299999999999 283.83 1217.8 281 1214.32 281C1210.83 281 1208 283.83 1208 287.32Z " fill="#eb4d4c" fill-opacity="1" transform="matrix(1,0,0,1,-1047,-264)"></path><path id="SvgjsPath1104" d="M1187 266L1194 266L1194 265L1187 265Z " fill="#eb4d4c" fill-opacity="1" transform="matrix(1,0,0,1,-1047,-264)"></path><path id="SvgjsPath1105" d="M1187 270L1203 270L1203 269L1187 269Z " fill="#eb4d4c" fill-opacity="1" transform="matrix(1,0,0,1,-1047,-264)"></path><path id="SvgjsPath1106" d="M1187 273L1203 273L1203 272L1187 272Z " fill="#eb4d4c" fill-opacity="1" transform="matrix(1,0,0,1,-1047,-264)"></path><path id="SvgjsPath1107" d="M1187 284L1194 284L1194 283L1187 283Z " fill="#eb4d4c" fill-opacity="1" transform="matrix(1,0,0,1,-1047,-264)"></path><path id="SvgjsPath1108" d="M1187 287L1203 287L1203 286L1187 286Z " fill="#eb4d4c" fill-opacity="1" transform="matrix(1,0,0,1,-1047,-264)"></path><path id="SvgjsPath1109" d="M1187 291L1203 291L1203 290L1187 290Z " fill="#eb4d4c" fill-opacity="1" transform="matrix(1,0,0,1,-1047,-264)"></path><path id="SvgjsPath1110" d="M1187 294L1203 294L1203 293L1187 293Z " fill="#eb4d4c" fill-opacity="1" transform="matrix(1,0,0,1,-1047,-264)"></path></svg>