<svg id="SvgjsSvg1017" xmlns="http://www.w3.org/2000/svg" version="1.1" xmlns:xlink="http://www.w3.org/1999/xlink" xmlns:svgjs="http://svgjs.com/svgjs" width="59" height="59" viewBox="0 0 59 59"><title>Fill 102</title><desc>Created with Avocode.</desc><defs id="SvgjsDefs1018"></defs><path id="SvgjsPath1019" d="M1205 449.64C1205 444.32 1209.32 440 1214.64 440C1219.95 440 1224.2700000000002 444.32 1224.2700000000002 449.64C1224.2700000000002 454.95 1219.9500000000003 459.27 1214.64 459.27C1209.3200000000002 459.27 1205 454.95 1205 449.64ZM1204 449.64C1204 455.5 1208.77 460.27 1214.64 460.27C1220.5 460.27 1225.2700000000002 455.5 1225.2700000000002 449.64C1225.2700000000002 443.77 1220.5000000000002 439 1214.64 439C1208.7700000000002 439 1204 443.77 1204 449.64Z " fill="#eb4d4c" fill-opacity="1" transform="matrix(1,0,0,1,-1185,-420)"></path><path id="SvgjsPath1020" d="M1236.43 453.19L1236.3700000000001 453.53C1235.8300000000002 456.4 1234.74 459.09999999999997 1233.13 461.57L1232.94 461.86L1236.6200000000001 466.86C1235.3400000000001 468.49 1233.8700000000001 469.98 1232.2500000000002 471.3L1227.2000000000003 467.71000000000004L1226.9100000000003 467.91C1224.4300000000003 469.59000000000003 1221.6900000000003 470.74 1218.7600000000002 471.32000000000005L1218.4300000000003 471.39000000000004L1217.3900000000003 477.52000000000004C1215.3900000000003 477.73 1213.3800000000003 477.74000000000007 1211.2900000000004 477.51000000000005L1210.2500000000005 471.39000000000004L1209.9200000000005 471.32000000000005C1206.9900000000005 470.74000000000007 1204.2500000000005 469.59000000000003 1201.7700000000004 467.91L1201.4700000000005 467.71000000000004L1196.5600000000004 471.41C1194.9300000000003 470.1 1193.4400000000005 468.6 1192.1300000000003 466.94L1195.7300000000002 461.86L1195.5500000000002 461.58000000000004C1193.9500000000003 459.12000000000006 1192.8600000000001 456.42 1192.3200000000002 453.53000000000003L1192.2500000000002 453.19000000000005L1186.1400000000003 452.1600000000001C1186.0500000000004 451.2300000000001 1186.0000000000002 450.2800000000001 1186.0000000000002 449.3400000000001C1186.0000000000002 448.2300000000001 1186.0700000000002 447.1000000000001 1186.2000000000003 445.9600000000001L1192.3500000000004 444.9200000000001L1192.4200000000003 444.5900000000001C1193.0400000000002 441.7300000000001 1194.1500000000003 439.1000000000001 1195.7100000000003 436.7900000000001L1195.9000000000003 436.50000000000006L1192.3300000000004 431.4800000000001C1193.6500000000003 429.87000000000006 1195.1500000000003 428.3900000000001 1196.8000000000004 427.0900000000001L1201.8900000000003 430.7000000000001L1202.1800000000003 430.5100000000001C1204.2900000000002 429.0800000000001 1206.8000000000002 428.0500000000001 1209.8300000000004 427.3700000000001L1210.1500000000003 427.3000000000001L1211.2600000000002 421.17000000000013C1213.2900000000002 420.9400000000001 1215.38 420.9400000000001 1217.4300000000003 421.17000000000013L1218.5300000000002 427.3100000000001L1218.8600000000001 427.3700000000001C1221.6200000000001 427.9400000000001 1224.63 429.3700000000001 1226.5200000000002 430.5200000000001L1226.8000000000002 430.6900000000001L1231.9 427.10000000000014C1233.5300000000002 428.3800000000001 1235.02 429.85000000000014 1236.3400000000001 431.4900000000001L1232.7500000000002 436.54000000000013L1232.9500000000003 436.8200000000001C1234.4100000000003 439.0000000000001 1235.6200000000003 441.8300000000001 1236.2500000000002 444.5900000000001L1236.3300000000002 444.9200000000001L1242.4800000000002 445.9600000000001C1242.6100000000004 447.0700000000001 1242.6800000000003 448.2100000000001 1242.6800000000003 449.3400000000001C1242.6800000000003 450.24000000000007 1242.6100000000004 451.3200000000001 1242.5400000000002 452.1600000000001ZM1243.38 445.1L1237.15 444.04C1236.5 441.39000000000004 1235.3500000000001 438.70000000000005 1233.97 436.56L1237.59 431.45L1237.36 431.15999999999997C1235.85 429.24999999999994 1234.12 427.53999999999996 1232.2199999999998 426.08L1231.9299999999998 425.84999999999997L1226.7599999999998 429.49999999999994C1224.8599999999997 428.37999999999994 1222.0499999999997 427.06999999999994 1219.3899999999999 426.46999999999997L1218.28 420.26L1217.92 420.21C1215.5500000000002 419.93 1213.1200000000001 419.93 1210.77 420.21L1210.4 420.26L1209.2900000000002 426.46999999999997C1206.41 427.15 1203.9900000000002 428.14 1201.91 429.48999999999995L1196.77 425.84L1196.48 426.07C1194.55 427.55 1192.81 429.26 1191.31 431.15L1191.08 431.45L1194.6899999999998 436.52C1193.2099999999998 438.78 1192.1499999999999 441.31 1191.5199999999998 444.03999999999996L1185.3099999999997 445.09999999999997L1185.2599999999998 445.46C1185.0899999999997 446.77 1184.9999999999998 448.07 1184.9999999999998 449.34C1184.9999999999998 450.45 1185.0599999999997 451.56 1185.1799999999998 452.64L1185.2199999999998 453.02L1191.3999999999999 454.06C1191.9699999999998 456.84 1193.0199999999998 459.45 1194.53 461.83L1190.8799999999999 466.96L1191.11 467.26C1192.61 469.2 1194.34 470.94 1196.25 472.44L1196.55 472.68L1201.51 468.94C1203.92 470.52 1206.57 471.63 1209.3799999999999 472.24L1210.4299999999998 478.42L1210.7999999999997 478.46000000000004C1211.9999999999998 478.61 1213.1899999999998 478.68000000000006 1214.3399999999997 478.68000000000006C1215.5199999999998 478.68000000000006 1216.7099999999996 478.61000000000007 1217.8799999999997 478.4700000000001L1218.2499999999995 478.4200000000001L1219.2999999999995 472.2300000000001C1222.1199999999994 471.63000000000005 1224.7699999999995 470.5200000000001 1227.1799999999996 468.93000000000006L1232.2799999999995 472.55000000000007L1232.5799999999995 472.32000000000005C1234.4799999999996 470.81000000000006 1236.1799999999994 469.08000000000004 1237.6399999999994 467.18000000000006L1237.8699999999994 466.88000000000005L1234.1499999999994 461.82000000000005C1235.6699999999994 459.43000000000006 1236.7199999999993 456.82000000000005 1237.2899999999995 454.06000000000006L1243.4599999999996 453.01000000000005L1243.4899999999996 452.64000000000004C1243.5899999999995 451.75000000000006 1243.6799999999996 450.41 1243.6799999999996 449.34000000000003C1243.6799999999996 448.04 1243.5999999999997 446.73 1243.4299999999996 445.46000000000004Z " fill="#eb4d4c" fill-opacity="1" transform="matrix(1,0,0,1,-1185,-420)"></path></svg>