<svg id="SvgjsSvg1000" xmlns="http://www.w3.org/2000/svg" version="1.1" xmlns:xlink="http://www.w3.org/1999/xlink" xmlns:svgjs="http://svgjs.com/svgjs" width="51" height="51" viewBox="0 0 51 51"><title>Fill 86</title><desc>Created with Avocode.</desc><defs id="SvgjsDefs1001"></defs><path id="SvgjsPath1007" d="M750.36 221.42C745.9 220.33999999999997 743.15 215.82999999999998 744.23 211.36999999999998C745.16 207.55999999999997 748.57 204.99999999999997 752.33 204.99999999999997C752.97 204.99999999999997 753.63 205.07999999999998 754.2900000000001 205.23999999999998C758.7500000000001 206.32 761.5000000000001 210.82999999999998 760.4200000000001 215.29C759.34 219.75 754.83 222.5 750.3600000000001 221.42ZM747.47 205.37C745.34 206.66 743.85 208.71 743.26 211.13C742.05 216.13 745.13 221.18 750.13 222.39C750.86 222.57 751.6 222.64999999999998 752.33 222.64999999999998C756.5300000000001 222.64999999999998 760.35 219.78999999999996 761.39 215.52999999999997C761.98 213.10999999999999 761.58 210.59999999999997 760.29 208.46999999999997C758.99 206.34999999999997 756.9399999999999 204.84999999999997 754.52 204.26999999999998C752.1 203.67999999999998 749.6 204.07 747.47 205.36999999999998Z " fill="#eb4d4c" fill-opacity="1" transform="matrix(1,0,0,1,-727,-188)"></path><path id="SvgjsPath1008" d="M775.7 221.59L770.33 221.21L770.1800000000001 221.53C769.1400000000001 223.83 767.6700000000001 225.89000000000001 765.8100000000001 227.64000000000001L765.5500000000001 227.88000000000002L767.6400000000001 232.86C766.2500000000001 233.95000000000002 764.7300000000001 234.89000000000001 763.1300000000001 235.66000000000003L759.5900000000001 231.60000000000002L759.2700000000001 231.72000000000003C756.83 232.63000000000002 754.2900000000001 233.04000000000002 751.7 232.93000000000004L751.35 232.92000000000004L749.22 237.89000000000004C748.36 237.77000000000004 747.51 237.61000000000004 746.6600000000001 237.41000000000005C745.83 237.20000000000005 745.0000000000001 236.95000000000005 744.1700000000001 236.66000000000005L744.5500000000001 231.27000000000007L744.23 231.12000000000006C741.88 230.03000000000006 739.8100000000001 228.50000000000006 738.0600000000001 226.58000000000007L737.82 226.31000000000006L732.9100000000001 228.44000000000005C731.83 227.02000000000007 730.8900000000001 225.47000000000006 730.1300000000001 223.84000000000006L734.2200000000001 220.28000000000006L734.1100000000001 219.96000000000006C733.2600000000001 217.57000000000008 732.9000000000001 215.06000000000006 733.0300000000001 212.52000000000007L733.0500000000001 212.17000000000007L728.09 210.04000000000008C728.2 209.25000000000009 728.35 208.46000000000006 728.5400000000001 207.69000000000008C728.7600000000001 206.7700000000001 729.0500000000001 205.8400000000001 729.3900000000001 204.92000000000007L734.8000000000001 205.30000000000007L734.95 205.00000000000006C736.0500000000001 202.71000000000006 737.5200000000001 200.72000000000006 739.3100000000001 199.09000000000006L739.57 198.86000000000007L737.58 193.88000000000008C739 192.8100000000001 740.5400000000001 191.89000000000007 742.1600000000001 191.13000000000008L745.7300000000001 195.2400000000001L746.0500000000002 195.1200000000001C748.1300000000002 194.3400000000001 750.4500000000002 193.9900000000001 753.1500000000002 194.04000000000008L753.4800000000002 194.04000000000008L755.6700000000003 189.08000000000007C756.5400000000003 189.20000000000007 757.4100000000003 189.36000000000007 758.2600000000003 189.57000000000008C759.1100000000004 189.77000000000007 759.9600000000004 190.0300000000001 760.7900000000003 190.32000000000008L760.4600000000003 195.74000000000007L760.7600000000002 195.88000000000005C762.6100000000002 196.75000000000006 764.8500000000003 198.37000000000006 766.5900000000003 200.11000000000004L766.8200000000003 200.34000000000003L771.8600000000002 198.34000000000003C772.9500000000003 199.74000000000004 773.8900000000002 201.26000000000002 774.6600000000002 202.87000000000003L770.5900000000001 206.41000000000003L770.7100000000002 206.74000000000004C771.5000000000001 208.87000000000003 771.9400000000002 211.50000000000003 771.9100000000002 213.96000000000004L771.9100000000002 214.30000000000004L776.9000000000002 216.44000000000003C776.7800000000002 217.39000000000001 776.6100000000002 218.35000000000002 776.3800000000002 219.29000000000002C776.2000000000003 220.03000000000003 775.9300000000002 220.90000000000003 775.7000000000003 221.59000000000003ZM772.91 213.64C772.9 211.27999999999997 772.49 208.79999999999998 771.77 206.72L775.89 203.14L775.73 202.79999999999998C774.84 200.86999999999998 773.73 199.05999999999997 772.4200000000001 197.42999999999998L772.19 197.14L767.0600000000001 199.17C765.69 197.83999999999997 763.6 196.17999999999998 761.5000000000001 195.13L761.8300000000002 189.64L761.4900000000001 189.51C760.5100000000001 189.14999999999998 759.5100000000001 188.84 758.5000000000001 188.6C757.4800000000001 188.35 756.4500000000002 188.16 755.4200000000001 188.04L755.0600000000001 188L752.84 193.03C750.2900000000001 193.02 748.0500000000001 193.36 746.0300000000001 194.06L742.4300000000001 189.92000000000002L742.09 190.07000000000002C740.15 190.93000000000004 738.33 192.02 736.6700000000001 193.32000000000002L736.3700000000001 193.55L738.3800000000001 198.59C736.69 200.18 735.2900000000001 202.09 734.2000000000002 204.26L728.7200000000001 203.87L728.5900000000001 204.22C728.1700000000002 205.29 727.8300000000002 206.37 727.5700000000002 207.45C727.3400000000001 208.38 727.1700000000002 209.33999999999997 727.0500000000002 210.29L727.0000000000002 210.66L732.0200000000002 212.82C731.9300000000002 215.26 732.2800000000002 217.66 733.0600000000002 219.97L728.9200000000002 223.57L729.0700000000002 223.91C729.9400000000002 225.85999999999999 731.0500000000002 227.7 732.3600000000001 229.35999999999999L732.6000000000001 229.66L737.5700000000002 227.51C739.2700000000002 229.32999999999998 741.2700000000002 230.79999999999998 743.5000000000001 231.88L743.1200000000001 237.32999999999998L743.4700000000001 237.46999999999997C744.4500000000002 237.82999999999998 745.4400000000002 238.13999999999996 746.4300000000002 238.37999999999997C747.4300000000002 238.61999999999998 748.4600000000002 238.80999999999997 749.4700000000001 238.92999999999998L749.8400000000001 238.96999999999997L752.0000000000001 233.93999999999997C754.4900000000001 233.99999999999997 756.9400000000002 233.60999999999996 759.2900000000001 232.76999999999998L762.8700000000001 236.89L763.2100000000002 236.73C765.1300000000001 235.84 766.9300000000002 234.72 768.5600000000002 233.41L768.8500000000001 233.17L766.7400000000001 228.13C768.5000000000001 226.42 769.9100000000001 224.45 770.9500000000002 222.26L776.3900000000002 222.64L776.5200000000002 222.27999999999997C776.7800000000002 221.54999999999998 777.1300000000002 220.43999999999997 777.3500000000003 219.51999999999998C777.6200000000002 218.42 777.8100000000003 217.29999999999998 777.9300000000003 216.17999999999998L777.9700000000003 215.80999999999997Z " fill="#eb4d4c" fill-opacity="1" transform="matrix(1,0,0,1,-727,-188)"></path></svg>