<svg id="SvgjsSvg1010" xmlns="http://www.w3.org/2000/svg" version="1.1" xmlns:xlink="http://www.w3.org/1999/xlink" xmlns:svgjs="http://svgjs.com/svgjs" width="32" height="30" viewBox="0 0 32 30"><title>Fill 112</title><desc>Created with Avocode.</desc><defs id="SvgjsDefs1011"></defs><path id="SvgjsPath1012" d="M1048 275L1059 275L1059 265L1048 265ZM1047 264L1060 264L1060 276L1047 276Z " fill="#eb4d4c" fill-opacity="1" transform="matrix(1,0,0,1,-1047,-264)"></path><path id="SvgjsPath1013" d="M1048 292L1059 292L1059 281L1048 281ZM1047 280L1060 280L1060 293L1047 293Z " fill="#eb4d4c" fill-opacity="1" transform="matrix(1,0,0,1,-1047,-264)"></path><path id="SvgjsPath1014" d="M1063 266L1070 266L1070 265L1063 265Z " fill="#eb4d4c" fill-opacity="1" transform="matrix(1,0,0,1,-1047,-264)"></path><path id="SvgjsPath1015" d="M1063 270L1079 270L1079 269L1063 269Z " fill="#eb4d4c" fill-opacity="1" transform="matrix(1,0,0,1,-1047,-264)"></path><path id="SvgjsPath1016" d="M1063 273L1079 273L1079 272L1063 272Z " fill="#eb4d4c" fill-opacity="1" transform="matrix(1,0,0,1,-1047,-264)"></path><path id="SvgjsPath1017" d="M1063 284L1070 284L1070 283L1063 283Z " fill="#eb4d4c" fill-opacity="1" transform="matrix(1,0,0,1,-1047,-264)"></path><path id="SvgjsPath1018" d="M1063 287L1079 287L1079 286L1063 286Z " fill="#eb4d4c" fill-opacity="1" transform="matrix(1,0,0,1,-1047,-264)"></path><path id="SvgjsPath1019" d="M1063 291L1079 291L1079 290L1063 290Z " fill="#eb4d4c" fill-opacity="1" transform="matrix(1,0,0,1,-1047,-264)"></path><path id="SvgjsPath1020" d="M1063 294L1079 294L1079 293L1063 293Z " fill="#eb4d4c" fill-opacity="1" transform="matrix(1,0,0,1,-1047,-264)"></path></svg>