<svg id="SvgjsSvg1017" xmlns="http://www.w3.org/2000/svg" version="1.1" xmlns:xlink="http://www.w3.org/1999/xlink" xmlns:svgjs="http://svgjs.com/svgjs" width="215" height="37" viewBox="0 0 215 37">
    <title>Group</title>
    <desc>Created with Avocode.</desc>
    <defs id="SvgjsDefs1018"></defs>
    <path
        id="SvgjsPath1019"
        d="M392.15 236L406.96999999999997 236L406.96999999999997 242.27L403.34 242.27L403.34 264.33L406.96999999999997 264.33L406.96999999999997 270.59999999999997L392.15 270.59999999999997L392.15 264.33L395.78 264.33L395.78 255.48999999999998L380.11999999999995 255.48999999999998L380.11999999999995 264.33L383.74999999999994 264.33L383.74999999999994 270.59999999999997L368.99999999999994 270.59999999999997L368.99999999999994 264.33L372.55999999999995 264.33L372.55999999999995 242.26999999999998L368.99999999999994 242.26999999999998L368.99999999999994 235.99999999999997L383.8299999999999 235.99999999999997L383.8299999999999 242.26999999999998L380.18999999999994 242.26999999999998L380.18999999999994 249.45L395.84999999999997 249.45L395.84999999999997 242.26999999999998L392.21999999999997 242.26999999999998L392.21999999999997 235.99999999999997Z "
        transform="matrix(1,0,0,1,-369,-235)"></path>
    <path
        id="SvgjsPath1020"
        d="M409.91 253.56C410.51000000000005 252.04 411.42 250.76 412.48 249.63C413.61 248.49 414.90000000000003 247.59 416.49 246.98C418 246.29999999999998 419.74 246 421.56 246C423.37 246 425.11 246.3 426.62 246.98C428.14 247.66 429.5 248.48999999999998 430.63 249.63C431.77 250.76 432.6 252.04 433.21 253.56C433.81 255.07 434.10999999999996 256.65 434.10999999999996 258.39C434.10999999999996 260.13 433.80999999999995 261.71999999999997 433.21 263.22999999999996C432.59999999999997 264.73999999999995 431.77 266.09999999999997 430.63 267.22999999999996C429.5 268.35999999999996 428.21 269.27 426.62 269.95C425.11 270.63 423.37 270.93 421.48 270.93C419.59000000000003 270.93 417.85 270.63 416.34000000000003 269.95C414.82000000000005 269.27 413.46000000000004 268.44 412.40000000000003 267.31C411.27000000000004 266.17 410.44000000000005 264.89 409.83000000000004 263.38C409.30000000000007 261.71999999999997 409.00000000000006 260.13 409.00000000000006 258.39C409.00000000000006 256.65 409.30000000000007 255.07 409.9100000000001 253.55999999999997ZM416.34 260.88C416.64 261.64 417.09 262.32 417.54999999999995 262.85C418.0799999999999 263.38 418.67999999999995 263.83000000000004 419.35999999999996 264.13C420.03999999999996 264.44 420.79999999999995 264.59 421.55999999999995 264.59C422.38999999999993 264.59 423.13999999999993 264.44 423.8299999999999 264.13C424.50999999999993 263.83 425.1099999999999 263.38 425.63999999999993 262.85C426.1699999999999 262.32000000000005 426.54999999999995 261.64000000000004 426.8499999999999 260.88C427.1499999999999 260.13 427.3099999999999 259.3 427.3099999999999 258.39C427.3099999999999 257.47999999999996 427.14999999999986 256.58 426.8499999999999 255.82C426.5499999999999 255.07 426.1699999999999 254.39 425.63999999999993 253.85999999999999C425.10999999999996 253.32999999999998 424.50999999999993 252.95 423.8299999999999 252.64999999999998C423.13999999999993 252.34999999999997 422.38999999999993 252.26999999999998 421.55999999999995 252.26999999999998C420.79999999999995 252.26999999999998 420.03999999999996 252.42 419.35999999999996 252.64999999999998C418.67999999999995 252.95 418.08 253.32999999999998 417.54999999999995 253.85999999999999C417.02 254.39 416.63999999999993 255.07 416.34 255.82C416.03 256.58 415.88 257.40999999999997 415.88 258.39C415.88 259.3 416.03 260.13 416.34 260.88Z "

        transform="matrix(1,0,0,1,-369,-235)"></path>
    <path
        id="SvgjsPath1021"
        d="M435 247L447.41 247L447.41 253.27L444.76000000000005 253.27L447.25000000000006 261.73L452.09000000000003 247.08L458.83000000000004 247.08L463.74000000000007 262.49L466.77000000000004 253.27L464.20000000000005 253.27L464.20000000000005 247L476.6 247L476.6 253.27L473.43 253.27L467.07 270.8L460.26 270.8L455.27 255.69L450.2 270.8L443.55 270.8L437.65000000000003 253.27L435.00000000000006 253.27Z "

        transform="matrix(1,0,0,1,-369,-235)"></path>
    <path
        id="SvgjsPath1022"
        d="M489.67 246.64L489.67 264.01L492.99 264.01L492.99 270.28L479.08 270.28L479.08 264.01L482.63 264.01L482.63 252.91L479.08 252.91L479.08 246.64ZM482.18 239C482.18 239.61 482.25 240.14 482.48 240.59C482.63 241.04 482.93 241.5 483.31 241.88C483.69 242.18 484.07 242.48 484.6 242.71C485.05 242.93 485.58000000000004 243.01000000000002 486.19 243.01000000000002C486.79 243.01000000000002 487.32 242.93 487.77 242.71C488.29999999999995 242.56 488.68 242.25 489.06 241.88C489.36 241.5 489.67 241.12 489.89 240.59C490.12 240.06 490.19 239.53 490.19 239C490.19 238.48 490.12 237.95 489.89 237.42C489.74 236.95999999999998 489.44 236.51 489.06 236.13C488.68 235.82999999999998 488.23 235.53 487.77 235.29999999999998C487.24 235.07999999999998 486.71999999999997 234.99999999999997 486.19 234.99999999999997C485.66 234.99999999999997 485.13 235.07999999999998 484.6 235.29999999999998C484.14000000000004 235.45 483.69 235.76 483.31 236.13C482.93 236.51 482.71 236.89 482.48 237.42C482.25 237.95 482.18 238.48 482.18 239Z "

        transform="matrix(1,0,0,1,-369,-235)"></path>
    <path
        id="SvgjsPath1023"
        d="M504.59 247.07L509.35999999999996 247.07L509.35999999999996 253.04L504.59 253.04L504.51 263.01C504.51 263.61 504.59 264.07 504.67 264.44C504.74 264.82 504.89000000000004 265.12 505.04 265.28C505.19 265.5 505.42 265.65 505.65000000000003 265.72999999999996C505.88000000000005 265.79999999999995 506.18 265.87999999999994 506.48 265.87999999999994C507.09000000000003 265.87999999999994 507.54 265.79999999999995 507.99 265.72999999999996C508.45 265.58 508.90000000000003 265.49999999999994 509.36 265.34999999999997L510.34000000000003 269.72999999999996C509.58000000000004 270.18999999999994 508.67 270.64 507.77000000000004 270.86999999999995C506.78000000000003 271.16999999999996 505.65000000000003 271.31999999999994 504.36 271.31999999999994C503.46000000000004 271.31999999999994 502.55 271.16999999999996 501.72 270.86999999999995C500.88000000000005 270.55999999999995 500.13000000000005 270.03999999999996 499.52000000000004 269.42999999999995C498.92 268.74999999999994 498.39000000000004 267.99999999999994 498.01000000000005 267.00999999999993C497.63000000000005 266.0299999999999 497.4800000000001 264.8999999999999 497.4800000000001 263.60999999999996L497.4000000000001 253.03999999999996L494.0000000000001 253.03999999999996L494.0000000000001 247.06999999999996L497.4000000000001 247.06999999999996L497.4800000000001 241.39999999999998L504.5900000000001 237.99999999999997Z "

        transform="matrix(1,0,0,1,-369,-235)"></path>
    <path
        id="SvgjsPath1024"
        d="M512.76 266.95L522.59 253.11999999999998L517.98 253.11999999999998L517.98 256.66999999999996L512 256.66999999999996L512 246.99999999999997L532.73 246.99999999999997L532.73 251.07999999999998L522.44 264.53L527.73 264.53L527.73 260L533.71 260L533.71 270.65L512.76 270.65Z "

        transform="matrix(1,0,0,1,-369,-235)"></path>
    <path
        id="SvgjsPath1025"
        d="M542.88 260.58L542.96 261.26C543.11 261.94 543.4100000000001 262.55 543.7900000000001 263.08C544.1700000000001 263.59999999999997 544.7 264.06 545.2300000000001 264.35999999999996C545.7600000000001 264.73999999999995 546.3600000000001 264.96 547.0400000000001 265.11999999999995C547.72 265.2699999999999 548.4100000000001 265.34 549.09 265.34C549.77 265.34 550.45 265.27 551.0500000000001 265.19C551.6600000000001 265.12 552.2600000000001 264.96 552.8700000000001 264.81C553.4700000000001 264.66 554.0000000000001 264.51 554.5300000000001 264.28000000000003C555.0600000000001 264.06 555.6700000000001 263.91 556.2 263.68L558.69 268.36C557.7800000000001 268.89 557.0300000000001 269.35 556.2700000000001 269.72C555.5200000000001 270.1 554.83 270.40000000000003 554.08 270.63000000000005C553.32 270.86000000000007 552.57 271.08000000000004 551.73 271.16C550.9 271.31 549.9200000000001 271.31 548.86 271.31C546.82 271.31 545 271.01 543.34 270.33C541.6700000000001 269.65 540.39 268.74 539.33 267.60999999999996C538.2700000000001 266.47999999999996 537.44 265.11999999999995 536.83 263.53C536.23 261.94 536 260.35999999999996 536 258.61999999999995C536 256.87999999999994 536.3 255.21999999999994 536.91 253.70999999999995C537.51 252.19999999999996 538.3399999999999 250.83999999999995 539.48 249.69999999999996C540.61 248.56999999999996 541.9 247.65999999999997 543.41 246.97999999999996C544.93 246.29999999999995 546.67 245.99999999999997 548.48 245.99999999999997C550.37 245.99999999999997 551.96 246.29999999999998 553.4 246.90999999999997C554.8299999999999 247.50999999999996 556.04 248.33999999999997 557.03 249.47999999999996C558.01 250.52999999999997 558.77 251.81999999999996 559.3 253.32999999999996C559.8299999999999 254.75999999999996 560.13 256.34999999999997 560.13 258.09C560.21 258.46999999999997 560.21 258.84 560.21 259.21999999999997C560.21 259.59999999999997 560.21 259.97999999999996 560.21 260.35999999999996L542.88 260.35999999999996ZM546.14 252.2C545.53 252.42 545 252.64999999999998 544.62 253.03C544.24 253.4 543.87 253.78 543.64 254.24C543.41 254.69 543.1899999999999 255.14000000000001 543.03 255.67000000000002L552.9399999999999 255.67000000000002C552.8699999999999 255.14000000000001 552.7199999999999 254.69000000000003 552.4899999999999 254.24C552.2599999999999 253.78 552.0399999999998 253.4 551.6599999999999 253.03C551.2799999999999 252.65 550.8299999999998 252.42 550.2999999999998 252.2C549.7699999999999 251.97 549.0899999999998 251.89 548.3299999999998 251.89C547.4999999999998 251.89 546.7399999999998 251.97 546.1399999999998 252.2Z "

        transform="matrix(1,0,0,1,-369,-235)"></path>
    <path
        id="SvgjsPath1026"
        d="M583.63 255.61L577.2 255.61L577.2 253.20000000000002C576.6 253.20000000000002 575.99 253.27 575.46 253.35000000000002C574.9300000000001 253.42000000000002 574.48 253.57000000000002 574.1 253.8C573.72 254.03 573.4200000000001 254.25 573.12 254.63000000000002C572.82 255.01000000000002 572.67 255.39000000000001 572.59 255.92000000000002L572.59 264.45L577.4300000000001 264.45L577.4300000000001 270.71999999999997L562.0000000000001 270.71999999999997L562.0000000000001 264.45L565.5600000000001 264.45L565.5600000000001 253.26999999999998L562.08 253.26999999999998L562.08 246.99999999999997L572.59 246.99999999999997L572.59 248.65999999999997C573.27 248.12999999999997 574.0300000000001 247.75999999999996 574.86 247.44999999999996C575.69 247.14999999999995 576.6 246.99999999999997 577.58 246.99999999999997C578.57 246.99999999999997 579.62 246.99999999999997 580.6800000000001 246.99999999999997C581.74 246.99999999999997 582.73 246.99999999999997 583.6300000000001 246.99999999999997Z "

        transform="matrix(1,0,0,1,-369,-235)"></path>
</svg>
