<svg id="SvgjsSvg1000" xmlns="http://www.w3.org/2000/svg" version="1.1" xmlns:xlink="http://www.w3.org/1999/xlink" xmlns:svgjs="http://svgjs.com/svgjs" width="20" height="17" viewBox="0 0 20 17"><title>Shape</title><desc>Created with Avocode.</desc><defs id="SvgjsDefs1001"></defs><path id="SvgjsPath1007" d="M1081.67 6516.2C1081.66 6516.2 1081.65 6516.2 1081.64 6516.2C1079.16 6516.2 1076.98 6515.57 1075.69 6516.7699999999995C1074.91 6517.49 1074.5900000000001 6518.36 1074.5900000000001 6519.29C1074.5900000000001 6523.2 1077.67 6523.67 1081.64 6523.67L1081.7 6523.67C1085.66 6523.67 1088.75 6523.1900000000005 1088.75 6519.29C1088.75 6518.35 1088.42 6517.49 1087.65 6516.7699999999995C1086.3600000000001 6515.57 1084.17 6516.2 1081.7 6516.2C1081.69 6516.2 1081.68 6516.2 1081.67 6516.2ZM1076.96 6519.62C1076.96 6518.5599999999995 1077.57 6517.7 1078.33 6517.7C1079.08 6517.7 1079.6899999999998 6518.5599999999995 1079.6899999999998 6519.62C1079.6899999999998 6520.68 1079.08 6521.54 1078.33 6521.54C1077.57 6521.54 1076.96 6520.68 1076.96 6519.62ZM1083.64 6519.62C1083.64 6518.5599999999995 1084.25 6517.7 1085.01 6517.7C1085.76 6517.7 1086.37 6518.5599999999995 1086.37 6519.62C1086.37 6520.68 1085.76 6521.54 1085.01 6521.54C1084.25 6521.54 1083.64 6520.68 1083.64 6519.62ZM1081.67 6524.62C1080.91 6524.62 1080.2 6524.62 1079.8500000000001 6524.62C1078.2600000000002 6524.62 1072.0000000000002 6524.49 1072.0000000000002 6516.84C1072.0000000000002 6515.08 1072.6000000000001 6513.79 1073.5700000000002 6512.72C1073.41 6512.33 1073.41 6510.12 1074.2400000000002 6508C1074.2400000000002 6508 1076.1400000000003 6508.21 1079.0200000000002 6510.21C1079.6200000000001 6510.05 1080.64 6509.96 1081.6700000000003 6509.96C1082.6900000000003 6509.96 1083.7100000000003 6510.05 1084.3100000000004 6510.21C1087.1900000000005 6508.21 1089.1000000000004 6508 1089.1000000000004 6508C1089.9300000000003 6510.12 1089.9200000000003 6512.33 1089.7600000000004 6512.72C1090.7400000000005 6513.79 1091.3300000000004 6515.08 1091.3300000000004 6516.84C1091.3300000000004 6524.49 1085.0700000000004 6524.62 1083.4900000000005 6524.62C1083.1300000000006 6524.62 1082.4200000000005 6524.62 1081.6700000000005 6524.62Z " fill="#ffffff" fill-opacity="1" transform="matrix(1,0,0,1,-1072,-6508)"></path></svg>