<svg id="SvgjsSvg1013" xmlns="http://www.w3.org/2000/svg" version="1.1" xmlns:xlink="http://www.w3.org/1999/xlink" xmlns:svgjs="http://svgjs.com/svgjs" width="24" height="20" viewBox="0 0 24 20"><title>Capa_1</title><desc>Created with Avocode.</desc><defs id="SvgjsDefs1014"></defs><path id="SvgjsPath1015" d="M287.07 6320C286.69 6320 286.4 6320.26 286.4 6320.59L286.4 6328.6900000000005L281.7 6328.6900000000005L281.7 6325.38C281.7 6325.07 281.40999999999997 6324.8 281.06 6324.8L277.67 6324.8C277.29 6324.8 276.99 6325.070000000001 276.99 6325.38L276.99 6328.6900000000005L272.3 6328.6900000000005L272.3 6320.860000000001C272.3 6320.55 272.01 6320.290000000001 271.64 6320.290000000001C271.28999999999996 6320.290000000001 271 6320.550000000001 271 6320.860000000001L271 6329.280000000001C271 6329.6 271.29 6329.860000000001 271.64 6329.860000000001L277.66999999999996 6329.860000000001C278.00999999999993 6329.860000000001 278.29999999999995 6329.6 278.29999999999995 6329.280000000001L278.29999999999995 6325.9800000000005L280.4 6325.9800000000005L280.4 6329.280000000001C280.4 6329.6 280.69 6329.860000000001 281.06 6329.860000000001L287.07 6329.860000000001C287.42 6329.860000000001 287.7 6329.6 287.7 6329.280000000001L287.7 6320.590000000001C287.7 6320.260000000001 287.42 6320.000000000001 287.07 6320.000000000001Z " fill="#ffffff" fill-opacity="1" transform="matrix(1,0,0,1,-267,-6310)"></path><path id="SvgjsPath1016" d="M285.58 6315.24L284.27 6314.0599999999995L279.95 6310.179999999999C279.82 6310.0599999999995 279.65999999999997 6309.999999999999 279.51 6309.999999999999C279.33 6309.999999999999 279.17 6310.069999999999 279.03999999999996 6310.179999999999L268.2 6319.869999999999C267.94 6320.0999999999985 267.92 6320.469999999999 268.2 6320.689999999999C268.44 6320.9299999999985 268.86 6320.919999999998 269.12 6320.689999999999L279.51 6311.419999999998L289.87 6320.769999999999C289.98 6320.869999999999 290.14 6320.919999999998 290.34000000000003 6320.919999999998C290.52000000000004 6320.919999999998 290.68 6320.869999999998 290.81000000000006 6320.769999999999C291.05000000000007 6320.559999999999 291.07000000000005 6320.169999999998 290.81000000000006 6319.9299999999985Z " fill="#ffffff" fill-opacity="1" transform="matrix(1,0,0,1,-267,-6310)"></path></svg>