<svg id="SvgjsSvg1021" xmlns="http://www.w3.org/2000/svg" version="1.1" xmlns:xlink="http://www.w3.org/1999/xlink" xmlns:svgjs="http://svgjs.com/svgjs" width="23" height="19" viewBox="0 0 23 19"><title>Shape</title><desc>Created with Avocode.</desc><defs id="SvgjsDefs1022"></defs><path id="SvgjsPath1023" d="M1203.09 6509.15C1202.28 6509.5199999999995 1201.3999999999999 6509.7699999999995 1200.49 6509.879999999999C1201.42 6509.3099999999995 1202.14 6508.409999999999 1202.48 6507.339999999999C1201.6 6507.86 1200.63 6508.239999999999 1199.6 6508.449999999999C1198.78 6507.559999999999 1197.6 6506.999999999999 1196.29 6506.999999999999C1193.79 6506.999999999999 1191.76 6509.0599999999995 1191.76 6511.589999999999C1191.76 6511.949999999999 1191.8 6512.3099999999995 1191.8799999999999 6512.639999999999C1188.11 6512.45 1184.77 6510.619999999999 1182.54 6507.839999999999C1182.1499999999999 6508.5199999999995 1181.92 6509.3099999999995 1181.92 6510.15C1181.92 6511.74 1182.72 6513.15 1183.94 6513.98C1183.2 6513.95 1182.5 6513.74 1181.89 6513.4C1181.89 6513.42 1181.89 6513.44 1181.89 6513.46C1181.89 6515.68 1183.45 6517.54 1185.5200000000002 6517.96C1185.14 6518.07 1184.7400000000002 6518.12 1184.3300000000002 6518.12C1184.0400000000002 6518.12 1183.7500000000002 6518.099999999999 1183.4800000000002 6518.04C1184.0500000000002 6519.87 1185.7300000000002 6521.2 1187.7100000000003 6521.23C1186.1600000000003 6522.469999999999 1184.2000000000003 6523.2 1182.0800000000002 6523.2C1181.7200000000003 6523.2 1181.3500000000001 6523.179999999999 1181.0000000000002 6523.139999999999C1183.0000000000002 6524.44 1185.3900000000003 6525.2 1187.9500000000003 6525.2C1196.2800000000002 6525.2 1200.8400000000004 6518.2 1200.8400000000004 6512.13C1200.8400000000004 6511.93 1200.8400000000004 6511.7300000000005 1200.8300000000004 6511.53C1201.7100000000005 6510.88 1202.4800000000005 6510.08 1203.0900000000004 6509.15Z " fill="#ffffff" fill-opacity="1" transform="matrix(1,0,0,1,-1181,-6507)"></path></svg>