<svg id="SvgjsSvg1024" xmlns="http://www.w3.org/2000/svg" version="1.1" xmlns:xlink="http://www.w3.org/1999/xlink" xmlns:svgjs="http://svgjs.com/svgjs" width="23" height="27" viewBox="0 0 23 27"><title>Capa_1</title><desc>Created with Avocode.</desc><defs id="SvgjsDefs1025"></defs><path id="SvgjsPath1026" d="M815.22 6318C814 6318 813 6318.94 813 6320.1L813 6337.84C813 6339 814 6339.9400000000005 815.22 6339.9400000000005L828.3100000000001 6339.9400000000005C829.5300000000001 6339.9400000000005 830.5300000000001 6339.000000000001 830.5300000000001 6337.84L830.5300000000001 6320.1C830.5200000000001 6318.9400000000005 829.5300000000001 6318 828.3100000000001 6318ZM828.3 6338.47L815.2199999999999 6338.47C814.8499999999999 6338.47 814.55 6338.18 814.55 6337.83L814.55 6320.1C814.55 6319.75 814.8499999999999 6319.47 815.2199999999999 6319.47L828.3 6319.47C828.67 6319.47 828.9699999999999 6319.75 828.9699999999999 6320.1L828.9699999999999 6337.83C828.9699999999999 6338.18 828.67 6338.47 828.3 6338.47Z " fill="#ffffff" fill-opacity="1" transform="matrix(1,0,0,1,-813,-6313)"></path><path id="SvgjsPath1027" d="M833.31 6313L820.2199999999999 6313C818.9999999999999 6313 817.9999999999999 6313.94 817.9999999999999 6315.1C817.9999999999999 6315.51 818.3499999999999 6315.84 818.7799999999999 6315.84C819.2099999999998 6315.84 819.5599999999998 6315.51 819.5599999999998 6315.1C819.5599999999998 6314.75 819.8599999999998 6314.47 820.2199999999998 6314.47L833.3099999999998 6314.47C833.6699999999998 6314.47 833.9699999999998 6314.75 833.9699999999998 6315.1L833.9699999999998 6332.84C833.9699999999998 6333.1900000000005 833.6699999999998 6333.47 833.3099999999998 6333.47C832.8699999999998 6333.47 832.5299999999999 6333.8 832.5299999999999 6334.21C832.5299999999999 6334.62 832.8699999999999 6334.94 833.3099999999998 6334.94C834.5299999999999 6334.94 835.5299999999999 6334 835.5299999999999 6332.839999999999L835.5299999999999 6315.099999999999C835.5299999999999 6313.94 834.5299999999999 6312.999999999999 833.3099999999998 6312.999999999999Z " fill="#ffffff" fill-opacity="1" transform="matrix(1,0,0,1,-813,-6313)"></path></svg>