<svg id="SvgjsSvg1000" xmlns="http://www.w3.org/2000/svg" version="1.1" xmlns:xlink="http://www.w3.org/1999/xlink" xmlns:svgjs="http://svgjs.com/svgjs" width="26" height="27" viewBox="0 0 26 27"><title>light-bulb</title><desc>Created with Avocode.</desc><defs id="SvgjsDefs1001"></defs><path id="SvgjsPath1007" d="M534.06 6317.32C533.78 6319.5 534.4599999999999 6321.63 535.8499999999999 6323.24C537.0799999999999 6324.62 537.7499999999999 6326.46 537.7499999999999 6328.349999999999L537.7499999999999 6331.339999999999C537.7499999999999 6332.539999999999 538.6999999999999 6333.5199999999995 539.8699999999999 6333.5199999999995L542.6099999999999 6333.5199999999995C543.7799999999999 6333.5199999999995 544.7299999999999 6332.54 544.7299999999999 6331.339999999999L544.7399999999999 6328.349999999999C544.7399999999999 6326.4 545.3499999999999 6324.62 546.5299999999999 6323.349999999999C547.8099999999998 6321.98 548.4899999999999 6320.2 548.4899999999999 6318.36C548.4799999999999 6314.2699999999995 545.18 6311 541.2099999999999 6311C537.3199999999999 6311 534.5099999999999 6314.05 534.06 6317.32ZM543.67 6331.34C543.67 6331.91 543.2199999999999 6332.37 542.66 6332.37L539.92 6332.37C539.36 6332.37 538.92 6331.92 538.92 6331.34L538.92 6330.02L543.66 6330.02L543.66 6331.34ZM543.62 6328.35L543.62 6328.870000000001L538.87 6328.870000000001L538.87 6328.35C538.87 6326.22 538.03 6324.1 536.64 6322.490000000001C535.41 6321.120000000001 534.91 6319.340000000001 535.13 6317.500000000001C535.52 6314.740000000001 537.96 6312.150000000001 541.22 6312.150000000001C544.63 6312.150000000001 547.37 6314.97 547.37 6318.360000000001C547.37 6319.900000000001 546.8100000000001 6321.400000000001 545.75 6322.55C544.35 6324.04 543.62 6326.110000000001 543.62 6328.35Z " fill="#ffffff" fill-opacity="1" transform="matrix(1,0,0,1,-528,-6307)"></path><path id="SvgjsPath1008" d="M540 6310L540 6307L541 6307L541 6310Z " fill="#ffffff" fill-opacity="1" transform="matrix(1,0,0,1,-528,-6307)"></path><path id="SvgjsPath1009" d="M548 6311.93L548.78 6312.76L550.6999999999999 6310.820000000001L549.91 6310.000000000001Z " fill="#ffffff" fill-opacity="1" transform="matrix(1,0,0,1,-528,-6307)"></path><path id="SvgjsPath1010" d="M551 6320L551 6319L554 6319L554 6320Z " fill="#ffffff" fill-opacity="1" transform="matrix(1,0,0,1,-528,-6307)"></path><path id="SvgjsPath1011" d="M528 6320L528 6319L531 6319L531 6320Z " fill="#ffffff" fill-opacity="1" transform="matrix(1,0,0,1,-528,-6307)"></path><path id="SvgjsPath1012" d="M531.79 6310L531 6310.82L532.92 6312.759999999999L533.6999999999999 6311.929999999999Z " fill="#ffffff" fill-opacity="1" transform="matrix(1,0,0,1,-528,-6307)"></path></svg>