<svg id="SvgjsSvg1000" xmlns="http://www.w3.org/2000/svg" version="1.1" xmlns:xlink="http://www.w3.org/1999/xlink" xmlns:svgjs="http://svgjs.com/svgjs" width="28" height="26" viewBox="0 0 28 26"><title>Fill 106</title><desc>Created with Avocode.</desc><defs id="SvgjsDefs1001"></defs><path id="SvgjsPath1007" d="M1155.57 271.39L1152.23 274.69L1152.93 275.37L1157.5800000000002 270.71L1152.8600000000001 266L1152.15 266.72L1155.77 270.39000000000004L1146.49 270.39000000000004C1142.99 270.39000000000004 1140 273.15000000000003 1140 276.65000000000003L1140 281.81000000000006C1140 284.64000000000004 1137.83 287.39000000000004 1135 287.39000000000004L1130 287.39000000000004L1130 288.39000000000004L1135 288.39000000000004C1138.38 288.39000000000004 1141 285.19000000000005 1141 281.81000000000006L1141 276.65000000000003C1141 273.70000000000005 1143.54 271.39000000000004 1146.49 271.39000000000004Z " fill="#eb4d4c" fill-opacity="1" transform="matrix(1,0,0,1,-1130,-266)"></path><path id="SvgjsPath1008" d="M1152.15 283.16L1155.77 287L1152.1 287C1149.27 287 1147 284.25 1147 281.42L1147 276L1146 276L1146 281.42C1146 284.8 1148.72 288 1152.1 288L1155.56 288L1152.23 291.12L1152.93 291.71L1157.5800000000002 287.01L1152.8600000000001 282.37Z " fill="#eb4d4c" fill-opacity="1" transform="matrix(1,0,0,1,-1130,-266)"></path><path id="SvgjsPath1009" d="M1130 271L1141 271L1141 270L1130 270Z " fill="#eb4d4c" fill-opacity="1" transform="matrix(1,0,0,1,-1130,-266)"></path></svg>