<?xml version="1.0" encoding="utf-8"?>
<!-- Generator: Adobe Illustrator 19.0.0, SVG Export Plug-In . SVG Version: 6.00 Build 0)  -->
<svg version="1.1" id="Слой_1" xmlns="http://www.w3.org/2000/svg" xmlns:xlink="http://www.w3.org/1999/xlink" x="0px" y="0px"
	 viewBox="0 0 87 185" style="enable-background:new 0 0 87 185;" xml:space="preserve">
<style type="text/css">
	.st0{fill:#EA4E4D;}
</style>
<path id="SvgjsPath1047" class="st0" d="M2,7h20c1.1,0,2-0.9,2-2s-0.9-2-2-2H2C0.9,3,0,4,0,5S0.9,7,2,7z"/>
<path id="SvgjsPath1048" class="st0" d="M10,15h4.6c1.1,0,2-0.9,2-2s-0.9-2-2-2H10c-1.1,0-2,0.9-2,2S8.9,15,10,15"/>
<path id="SvgjsPath1049" class="st0" d="M10,24h21.3c1.1,0,2-0.9,2-2s-0.9-2-2-2H10c-1.1,0-2,0.9-2,2S8.9,24,10,24"/>
<path id="SvgjsPath1050" class="st0" d="M10,32h13c1.1,0,2-0.9,2-2s-0.9-2-2-2H10c-1.1,0-2,0.9-2,2S8.9,32,10,32"/>
<path id="SvgjsPath1051" class="st0" d="M10,56h13c1.1,0,2-0.4,2-1.5S24.1,53,23,53H10c-1.1,0-2,0.4-2,1.5S8.9,56,10,56"/>
<path id="SvgjsPath1052" class="st0" d="M37.6,71c0-1.1-0.9-2-2-2H10c-1.1,0-2,0.9-2,2s0.9,2,2,2h25.7C36.7,73,37.6,72.1,37.6,71"/>
<path id="SvgjsPath1053" class="st0" d="M10,78c-1.1,0-2,0.9-2,2s0.9,2,2,2h13c1.1,0,2-0.9,2-2s-0.9-2-2-2H10z"/>
<path id="SvgjsPath1054" class="st0" d="M30.7,86H10c-1.1,0-2,0.9-2,2s0.9,2,2,2h20.8c1.1,0,2-0.9,2-2S31.8,86,30.7,86"/>
<path id="SvgjsPath1055" class="st0" d="M59.7,86H38.9c-1.1,0-2,0.9-2,2s0.9,2,2,2h20.8c1.1,0,2-0.9,2-2S60.8,86,59.7,86"/>
<path id="SvgjsPath1056" class="st0" d="M68.4,78H30.9c-1.1,0-2,0.9-2,2s0.9,2,2,2h37.5c1.1,0,2-0.9,2-2S69.5,78,68.4,78"/>
<path id="SvgjsPath1057" class="st0" d="M30.9,56h13c1.1,0,2-0.4,2-1.5S45,53,43.9,53h-13c-1.1,0-2,0.4-2,1.5S29.8,56,30.9,56"/>
<path id="SvgjsPath1058" class="st0" d="M41,71c0,1.1,0.9,2,2,2h10.2c1.1,0,2-0.9,2-2s-0.9-2-2-2H42.9C41.8,69,41,70,41,71"/>
<path id="SvgjsPath1059" class="st0" d="M85.1,69H60.9c-1.1,0-2,0.9-2,2s0.9,2,2,2h24.2c1.1,0,2-0.9,2-2S86.2,69,85.1,69"/>
<path id="SvgjsPath1060" class="st0" d="M0,38c0,1.1,0.9,2,2,2h24.2c1.1,0,2-0.9,2-2s-0.9-2-2-2H2C0.9,36,0,37,0,38"/>
<path id="SvgjsPath1061" class="st0" d="M42,63.5c0-1.1-0.9-1.5-2-1.5H2c-1.1,0-2,0.4-2,1.5C0,64.6,0.9,65,2,65h38
	C41.1,65,42,64.6,42,63.5"/>
<path id="SvgjsPath1062" class="st0" d="M41.3,47c0-1.1-0.9-2-2-2H11c-1.1,0-2,0.9-2,2s0.9,2,2,2h28.3C40.4,49,41.3,48.1,41.3,47"/>
<path id="SvgjsPath1063" class="st0" d="M46.9,49h28.3c1.1,0,2-0.9,2-2s-0.9-2-2-2H46.9c-1.1,0-2,0.9-2,2S45.8,49,46.9,49"/>
<path id="SvgjsPath1064" class="st0" d="M82.2,54.5c0-1.1-0.9-1.5-2-1.5H51.9c-1.1,0-2,0.4-2,1.5s0.9,1.5,2,1.5h28.3
	C81.3,56,82.2,55.6,82.2,54.5"/>
<path id="SvgjsPath1065" class="st0" d="M29,30c0,1.1,0.9,2,2,2h13c1.1,0,2-0.9,2-2s-0.9-2-2-2h-13C29.8,28,29,29,29,30"/>
<path id="SvgjsPath1066" class="st0" d="M54.1,38c0-1.1-0.9-2-2-2H35.9c-1.1,0-2,0.9-2,2s0.9,2,2,2h16.2C53.2,40,54.1,39.1,54.1,38"
	/>
<path id="SvgjsPath1067" class="st0" d="M78.8,22c0-1.1-0.9-2-2-2H38.9c-1.1,0-2,0.9-2,2s0.9,2,2,2h37.9C78,24,78.8,23.1,78.8,22"/>
<path id="SvgjsPath1068" class="st0" d="M21,13c0,1.1,0.9,2,2,2h37.2c1.1,0,2-0.9,2-2s-0.9-2-2-2H22.9C21.9,11,21,12,21,13"/>
<path id="SvgjsPath1069" class="st0" d="M67.9,15h12.5c1.1,0,2-0.9,2-2s-0.9-2-2-2H67.9c-1.1,0-2,0.9-2,2S66.8,15,67.9,15"/>
<path id="SvgjsPath1047_1_" class="st0" d="M2.1,97.5h20.1c1.1,0,2-0.9,2-2s-0.9-2-2-2H2.1c-1.1,0-2,0.9-2,2S1,97.5,2.1,97.5z"/>
<path id="SvgjsPath1048_1_" class="st0" d="M9.9,106.4h4.6c1.1,0,2-0.9,2-2s-0.9-2-2-2H9.9c-1.1,0-2,0.9-2,2S8.9,106.4,9.9,106.4"/>
<path id="SvgjsPath1049_1_" class="st0" d="M9.9,115.4h21.3c1.1,0,2-0.9,2-2s-0.9-2-2-2H9.9c-1.1,0-2,0.9-2,2S8.9,115.4,9.9,115.4"
	/>
<path id="SvgjsPath1050_1_" class="st0" d="M9.9,123.4h13c1.1,0,2-0.9,2-2s-0.9-2-2-2h-13c-1.1,0-2,0.9-2,2S8.9,123.4,9.9,123.4"/>
<path id="SvgjsPath1051_1_" class="st0" d="M9.9,147.4h13c1.1,0,2-0.4,2-1.5s-0.9-1.5-2-1.5h-13c-1.1,0-2,0.4-2,1.5
	S8.9,147.4,9.9,147.4"/>
<path id="SvgjsPath1052_1_" class="st0" d="M37.6,162.4c0-1.1-0.9-2-2-2H9.9c-1.1,0-2,0.9-2,2s0.9,2,2,2h25.6
	C36.7,164.4,37.6,163.5,37.6,162.4"/>
<path id="SvgjsPath1053_1_" class="st0" d="M9.9,169.4c-1.1,0-2,0.9-2,2s0.9,2,2,2h13c1.1,0,2-0.9,2-2s-0.9-2-2-2H9.9z"/>
<path id="SvgjsPath1054_1_" class="st0" d="M30.7,177.4H9.9c-1.1,0-2,0.9-2,2s0.9,2,2,2h20.8c1.1,0,2-0.9,2-2S31.8,177.4,30.7,177.4
	"/>
<path id="SvgjsPath1055_1_" class="st0" d="M59.6,177.4H38.9c-1.1,0-2,0.9-2,2s0.9,2,2,2h20.8c1.1,0,2-0.9,2-2
	S60.7,177.4,59.6,177.4"/>
<path id="SvgjsPath1056_1_" class="st0" d="M68.3,169.4H30.9c-1.1,0-2,0.9-2,2s0.9,2,2,2h37.4c1.1,0,2-0.9,2-2
	S69.4,169.4,68.3,169.4"/>
<path id="SvgjsPath1057_1_" class="st0" d="M30.9,147.4h13c1.1,0,2-0.4,2-1.5s-0.9-1.5-2-1.5h-13c-1.1,0-2,0.4-2,1.5
	S29.8,147.4,30.9,147.4"/>
<path id="SvgjsPath1058_1_" class="st0" d="M40.9,162.4c0,1.1,0.9,2,2,2h10.2c1.1,0,2-0.9,2-2s-0.9-2-2-2H42.9
	C41.8,160.4,40.9,161.3,40.9,162.4"/>
<path id="SvgjsPath1059_1_" class="st0" d="M85,160.4H60.8c-1.1,0-2,0.9-2,2s0.9,2,2,2H85c1.1,0,2-0.9,2-2S86.1,160.4,85,160.4"/>
<path id="SvgjsPath1060_1_" class="st0" d="M0,129.4c0,1.1,0.9,2,2,2h24.2c1.1,0,2-0.9,2-2s-0.9-2-2-2H2C0.9,127.4,0,128.3,0,129.4"
	/>
<path id="SvgjsPath1061_1_" class="st0" d="M41.9,154.9c0-1.1-0.9-1.5-2-1.5H2c-1.1,0-2,0.4-2,1.5s0.9,1.5,2,1.5h38
	C41,156.4,41.9,156,41.9,154.9"/>
<path id="SvgjsPath1062_1_" class="st0" d="M41.2,138.4c0-1.1-0.9-2-2-2H10.9c-1.1,0-2,0.9-2,2s0.9,2,2,2h28.3
	C40.3,140.4,41.2,139.5,41.2,138.4"/>
<path id="SvgjsPath1063_1_" class="st0" d="M46.9,140.4h28.3c1.1,0,2-0.9,2-2s-0.9-2-2-2H46.9c-1.1,0-2,0.9-2,2
	S45.8,140.4,46.9,140.4"/>
<path id="SvgjsPath1064_1_" class="st0" d="M82.1,145.9c0-1.1-0.9-1.5-2-1.5H51.9c-1.1,0-2,0.4-2,1.5s0.9,1.5,2,1.5h28.3
	C81.2,147.4,82.1,147,82.1,145.9"/>
<path id="SvgjsPath1065_1_" class="st0" d="M28.9,121.4c0,1.1,0.9,2,2,2h13c1.1,0,2-0.9,2-2s-0.9-2-2-2h-13
	C29.8,119.4,28.9,120.3,28.9,121.4"/>
<path id="SvgjsPath1066_1_" class="st0" d="M54,129.4c0-1.1-0.9-2-2-2H35.9c-1.1,0-2,0.9-2,2s0.9,2,2,2h16.2
	C53.1,131.4,54,130.5,54,129.4"/>
<path id="SvgjsPath1067_1_" class="st0" d="M78.7,113.4c0-1.1-0.9-2-2-2H38.9c-1.1,0-2,0.9-2,2s0.9,2,2,2h37.9
	C77.9,115.4,78.7,114.5,78.7,113.4"/>
<path id="SvgjsPath1068_1_" class="st0" d="M21,104.4c0,1.1,0.9,2,2,2H60c1.1,0,2-0.9,2-2s-0.9-2-2-2H22.9
	C21.8,102.4,21,103.3,21,104.4"/>
<path id="SvgjsPath1069_1_" class="st0" d="M67.8,106.4h12.5c1.1,0,2-0.9,2-2s-0.9-2-2-2H67.8c-1.1,0-2,0.9-2,2
	S66.7,106.4,67.8,106.4"/>
</svg>
