<?xml version="1.0" encoding="utf-8"?>
<!-- Generator: Adobe Illustrator 19.0.0, SVG Export Plug-In . SVG Version: 6.00 Build 0)  -->
<svg version="1.1" id="Слой_1" xmlns="http://www.w3.org/2000/svg" xmlns:xlink="http://www.w3.org/1999/xlink" x="0px" y="0px"
	 viewBox="0 0 82 120" style="enable-background:new 0 0 82 120;" xml:space="preserve">
<style type="text/css">
	.st0{fill:#EA4E4D;}
</style>
<path id="SvgjsPath1030" class="st0" d="M2,7.9h20c1.1,0,2-0.9,2-2s-0.9-2-2-2H2c-1.1,0-2,0.9-2,2S0.9,7.9,2,7.9"/>
<path id="SvgjsPath1031" class="st0" d="M9.9,15.9h4.6c1.1,0,2-0.9,2-2s-0.9-2-2-2H9.9c-1.1,0-2,0.9-2,2S8.8,15.9,9.9,15.9"/>
<path id="SvgjsPath1032" class="st0" d="M33.1,22.9c0-1.1-0.9-2-2-2H9.9c-1.1,0-2,0.9-2,2s0.9,2,2,2h21.2
	C32.2,24.9,33.1,24,33.1,22.9"/>
<path id="SvgjsPath1033" class="st0" d="M9.9,28.9c-1.1,0-2,0.9-2,2s0.9,2,2,2h13c1.1,0,2-0.9,2-2s-0.9-2-2-2H9.9z"/>
<path id="SvgjsPath1034" class="st0" d="M22.9,53.9h-13c-1.1,0-2,0.9-2,2s0.9,2,2,2h13c1.1,0,2-0.9,2-2S24,53.9,22.9,53.9"/>
<path id="SvgjsPath1035" class="st0" d="M43.8,53.9h-13c-1.1,0-2,0.9-2,2s0.9,2,2,2h13c1.1,0,2-0.9,2-2S44.9,53.9,43.8,53.9"/>
<path id="SvgjsPath1036" class="st0" d="M28.1,38.9c0-1.1-0.9-2-2-2H2c-1.1,0-2,0.9-2,2s0.9,2,2,2h24.2C27.2,40.9,28.1,40,28.1,38.9
	"/>
<path id="SvgjsPath1037" class="st0" d="M8,47.9c0,1.1,0.9,2,2,2h28.3c1.1,0,2-0.9,2-2s-0.9-2-2-2H9.9C8.8,45.9,8,46.8,8,47.9"/>
<path id="SvgjsPath1038" class="st0" d="M77,47.9c0-1.1-0.9-2-2-2H46.8c-1.1,0-2,0.9-2,2s0.9,2,2,2H75C76.1,49.9,77,49,77,47.9"/>
<path id="SvgjsPath1039" class="st0" d="M82,55.9c0-1.1-0.9-2-2-2H51.8c-1.1,0-2,0.9-2,2s0.9,2,2,2H80C81.1,57.9,82,57,82,55.9"/>
<path id="SvgjsPath1040" class="st0" d="M30.8,32.9h13c1.1,0,2-0.9,2-2s-0.9-2-2-2h-13c-1.1,0-2,0.9-2,2S29.8,32.9,30.8,32.9"/>
<path id="SvgjsPath1041" class="st0" d="M53.9,38.9c0-1.1-0.9-2-2-2H35.8c-1.1,0-2,0.9-2,2s0.9,2,2,2H52C53,40.9,53.9,40,53.9,38.9"
	/>
<path id="SvgjsPath1042" class="st0" d="M78.6,22.9c0-1.1-0.9-2-2-2H38.8c-1.1,0-2,0.9-2,2s0.9,2,2,2h37.8
	C77.7,24.9,78.6,24,78.6,22.9"/>
<path id="SvgjsPath1043" class="st0" d="M20.9,13.9c0,1.1,0.9,2,2,2h37c1.1,0,2-0.9,2-2s-0.9-2-2-2h-37
	C21.8,11.9,20.9,12.8,20.9,13.9"/>
<path id="SvgjsPath1044" class="st0" d="M67.7,15.9h12.4c1.1,0,2-0.9,2-2s-0.9-2-2-2H67.7c-1.1,0-2,0.9-2,2S66.6,15.9,67.7,15.9"/>
<path id="SvgjsPath1030_1_" class="st0" d="M2,65.9h20c1.1,0,2-0.9,2-2s-0.9-2-2-2H2c-1.1,0-2,0.9-2,2S0.9,65.9,2,65.9"/>
<path id="SvgjsPath1031_1_" class="st0" d="M9.9,73.9h4.6c1.1,0,2-0.9,2-2s-0.9-2-2-2H9.9c-1.1,0-2,0.9-2,2S8.8,73.9,9.9,73.9"/>
<path id="SvgjsPath1032_1_" class="st0" d="M33.1,80.9c0-1.1-0.9-2-2-2H9.9c-1.1,0-2,0.9-2,2s0.9,2,2,2h21.2
	C32.2,82.9,33.1,82,33.1,80.9"/>
<path id="SvgjsPath1033_1_" class="st0" d="M9.9,86.9c-1.1,0-2,0.9-2,2s0.9,2,2,2h13c1.1,0,2-0.9,2-2s-0.9-2-2-2H9.9z"/>
<path id="SvgjsPath1034_1_" class="st0" d="M22.9,111.9h-13c-1.1,0-2,0.9-2,2s0.9,2,2,2h13c1.1,0,2-0.9,2-2S24,111.9,22.9,111.9"/>
<path id="SvgjsPath1035_1_" class="st0" d="M43.8,111.9h-13c-1.1,0-2,0.9-2,2s0.9,2,2,2h13c1.1,0,2-0.9,2-2S44.9,111.9,43.8,111.9"
	/>
<path id="SvgjsPath1036_1_" class="st0" d="M28.1,96.9c0-1.1-0.9-2-2-2H2c-1.1,0-2,0.9-2,2s0.9,2,2,2h24.2
	C27.2,98.9,28.1,98,28.1,96.9"/>
<path id="SvgjsPath1037_1_" class="st0" d="M8,105.9c0,1.1,0.9,2,2,2h28.3c1.1,0,2-0.9,2-2s-0.9-2-2-2H9.9
	C8.8,103.9,8,104.8,8,105.9"/>
<path id="SvgjsPath1038_1_" class="st0" d="M77,105.9c0-1.1-0.9-2-2-2H46.8c-1.1,0-2,0.9-2,2s0.9,2,2,2H75
	C76.1,107.9,77,107,77,105.9"/>
<path id="SvgjsPath1039_1_" class="st0" d="M82,113.9c0-1.1-0.9-2-2-2H51.8c-1.1,0-2,0.9-2,2s0.9,2,2,2H80
	C81.1,115.9,82,115,82,113.9"/>
<path id="SvgjsPath1040_1_" class="st0" d="M30.8,90.9h13c1.1,0,2-0.9,2-2s-0.9-2-2-2h-13c-1.1,0-2,0.9-2,2S29.8,90.9,30.8,90.9"/>
<path id="SvgjsPath1041_1_" class="st0" d="M53.9,96.9c0-1.1-0.9-2-2-2H35.8c-1.1,0-2,0.9-2,2s0.9,2,2,2H52
	C53,98.9,53.9,98,53.9,96.9"/>
<path id="SvgjsPath1042_1_" class="st0" d="M78.6,80.9c0-1.1-0.9-2-2-2H38.8c-1.1,0-2,0.9-2,2s0.9,2,2,2h37.8
	C77.7,82.9,78.6,82,78.6,80.9"/>
<path id="SvgjsPath1043_1_" class="st0" d="M20.9,71.9c0,1.1,0.9,2,2,2h37c1.1,0,2-0.9,2-2s-0.9-2-2-2h-37
	C21.8,69.9,20.9,70.8,20.9,71.9"/>
<path id="SvgjsPath1044_1_" class="st0" d="M67.7,73.9h12.4c1.1,0,2-0.9,2-2s-0.9-2-2-2H67.7c-1.1,0-2,0.9-2,2S66.6,73.9,67.7,73.9"
	/>
</svg>
