<svg id="SvgjsSvg1013" xmlns="http://www.w3.org/2000/svg" version="1.1" xmlns:xlink="http://www.w3.org/1999/xlink" xmlns:svgjs="http://svgjs.com/svgjs" width="36" height="36" viewBox="0 0 36 36"><title>Fill 94</title><desc>Created with Avocode.</desc><defs id="SvgjsDefs1014"></defs><path id="SvgjsPath1015" d="M1172.62 438.51C1171.33 439.3 1169.81 439.53999999999996 1168.34 439.18C1166.86 438.83 1165.62 437.92 1164.83 436.63C1164.04 435.33 1163.81 433.81 1164.1599999999999 432.34C1164.5199999999998 430.85999999999996 1165.4299999999998 429.61999999999995 1166.7199999999998 428.83C1167.62 428.28 1168.6299999999999 428 1169.6599999999999 428C1170.11 428 1170.56 428.05 1171.0099999999998 428.16C1174.0499999999997 428.90000000000003 1175.9199999999998 431.97 1175.1799999999998 435.01000000000005C1174.83 436.4800000000001 1173.9199999999998 437.7300000000001 1172.62 438.51000000000005ZM1166.2 427.98C1164.68 428.91 1163.6100000000001 430.37 1163.19 432.1C1162.77 433.83000000000004 1163.05 435.62 1163.98 437.15000000000003C1164.91 438.67 1166.3700000000001 439.74 1168.1 440.16C1168.6299999999999 440.28000000000003 1169.1599999999999 440.35 1169.6899999999998 440.35C1170.8999999999999 440.35 1172.09 440.01000000000005 1173.1499999999999 439.37C1174.6699999999998 438.44 1175.7399999999998 436.98 1176.1599999999999 435.24C1177.0199999999998 431.67 1174.82 428.06 1171.2499999999998 427.19C1169.5099999999998 426.77 1167.7199999999998 427.05 1166.1999999999998 427.98Z " fill="#eb4d4c" fill-opacity="1" transform="matrix(1,0,0,1,-1152,-416)"></path><path id="SvgjsPath1016" d="M1186.11 439.44L1182.36 439.18L1182.2199999999998 439.5C1181.4999999999998 441.1 1180.4799999999998 442.52 1179.1899999999998 443.73L1178.9399999999998 443.96000000000004L1180.3899999999999 447.44000000000005C1179.4899999999998 448.14000000000004 1178.4999999999998 448.75000000000006 1177.4599999999998 449.26000000000005L1174.9999999999998 446.4200000000001L1174.6699999999998 446.5400000000001C1172.9899999999998 447.1700000000001 1171.2299999999998 447.4600000000001 1169.4399999999998 447.3900000000001L1169.09 447.3700000000001L1167.61 450.8300000000001C1167.05 450.7500000000001 1166.49 450.6500000000001 1165.9499999999998 450.5200000000001C1165.4099999999999 450.3900000000001 1164.86 450.2300000000001 1164.33 450.0400000000001L1164.59 446.2800000000001L1164.28 446.1300000000001C1162.6499999999999 445.3800000000001 1161.22 444.3200000000001 1160.01 442.9900000000001L1159.77 442.73000000000013L1156.35 444.21000000000015C1155.6499999999999 443.28000000000014 1155.04 442.28000000000014 1154.54 441.22000000000014L1157.3899999999999 438.7400000000001L1157.28 438.42000000000013C1156.69 436.7600000000001 1156.44 435.03000000000014 1156.53 433.27000000000015L1156.55 432.92000000000013L1153.09 431.4400000000001C1153.1699999999998 430.9300000000001 1153.27 430.42000000000013 1153.3899999999999 429.92000000000013C1153.53 429.3200000000001 1153.7199999999998 428.71000000000015 1153.9399999999998 428.1100000000001L1157.7099999999998 428.3700000000001L1157.86 428.0700000000001C1158.62 426.4900000000001 1159.6399999999999 425.1100000000001 1160.87 423.98000000000013L1161.1299999999999 423.7500000000001L1159.7399999999998 420.2800000000001C1160.6699999999998 419.5900000000001 1161.6699999999998 418.99000000000007 1162.7299999999998 418.49000000000007L1165.2099999999998 421.36000000000007L1165.5399999999997 421.24000000000007C1166.9699999999998 420.70000000000005 1168.5699999999997 420.4600000000001 1170.4399999999998 420.49000000000007L1170.7799999999997 420.50000000000006L1172.2999999999997 417.0400000000001C1172.8599999999997 417.12000000000006 1173.4299999999998 417.2300000000001 1173.9799999999998 417.36000000000007C1174.5399999999997 417.50000000000006 1175.0899999999997 417.6600000000001 1175.6299999999999 417.8500000000001L1175.3999999999999 421.62000000000006L1175.7099999999998 421.77000000000004C1176.9899999999998 422.37000000000006 1178.5299999999997 423.49000000000007 1179.7399999999998 424.69000000000005L1179.9699999999998 424.9200000000001L1183.4799999999998 423.5300000000001C1184.1799999999998 424.4400000000001 1184.7899999999997 425.43000000000006 1185.2999999999997 426.4800000000001L1182.4699999999998 428.9500000000001L1182.5899999999997 429.2700000000001C1183.1299999999997 430.7500000000001 1183.4399999999996 432.5700000000001 1183.4199999999996 434.2700000000001L1183.4099999999996 434.6000000000001L1186.8899999999996 436.1000000000001C1186.8099999999997 436.7200000000001 1186.6899999999996 437.3500000000001 1186.5399999999997 437.9600000000001C1186.4299999999998 438.4300000000001 1186.2599999999998 438.99000000000007 1186.1099999999997 439.4400000000001ZM1184.42 433.95C1184.4 432.34999999999997 1184.1200000000001 430.67 1183.64 429.25L1186.5300000000002 426.74L1186.3700000000001 426.40000000000003C1185.74 425.04 1184.96 423.77000000000004 1184.0300000000002 422.62000000000006L1183.8000000000002 422.33000000000004L1180.2100000000003 423.75000000000006C1179.2600000000002 422.8500000000001 1177.8600000000004 421.74000000000007 1176.4400000000003 421.01000000000005L1176.6700000000003 417.1700000000001L1176.3300000000004 417.0400000000001C1175.6500000000003 416.7800000000001 1174.9400000000003 416.56000000000006 1174.2200000000005 416.3900000000001C1173.5100000000004 416.2200000000001 1172.7800000000004 416.0900000000001 1172.0500000000004 416.0000000000001L1171.6900000000005 416.0500000000001L1170.1300000000006 419.66000000000014L1170.1200000000006 419.66000000000014C1168.4100000000005 419.66000000000014 1166.9000000000005 419.8000000000001 1165.5200000000007 420.27000000000015L1162.9900000000007 417.32000000000016L1162.6600000000008 417.45000000000016C1161.2900000000009 418.0600000000002 1160.0000000000007 418.82000000000016 1158.8300000000008 419.73000000000013L1158.5300000000009 419.96000000000015L1159.950000000001 423.4900000000001C1158.8100000000009 424.5800000000001 1157.860000000001 425.8700000000001 1157.110000000001 427.3300000000001L1153.2700000000011 427.0600000000001L1153.130000000001 427.4000000000001C1152.840000000001 428.1600000000001 1152.600000000001 428.9200000000001 1152.420000000001 429.68000000000006C1152.260000000001 430.3400000000001 1152.130000000001 431.02000000000004 1152.050000000001 431.69000000000005L1152.0000000000011 432.06000000000006L1155.5200000000011 433.57000000000005C1155.4700000000012 435.2300000000001 1155.7100000000012 436.86000000000007 1156.2200000000012 438.43000000000006L1153.320000000001 440.95000000000005L1153.4700000000012 441.29C1154.090000000001 442.67 1154.8700000000013 443.96000000000004 1155.790000000001 445.13L1156.030000000001 445.43L1159.5100000000011 443.93C1160.6800000000012 445.15000000000003 1162.030000000001 446.14 1163.540000000001 446.89L1163.2700000000011 450.71L1163.630000000001 450.84999999999997C1164.320000000001 451.09999999999997 1165.0200000000011 451.32 1165.710000000001 451.48999999999995C1166.420000000001 451.65999999999997 1167.140000000001 451.78999999999996 1167.860000000001 451.87999999999994L1168.230000000001 451.91999999999996L1169.740000000001 448.39C1171.420000000001 448.43 1173.0900000000008 448.15999999999997 1174.690000000001 447.59999999999997L1177.200000000001 450.48999999999995L1177.5400000000009 450.3299999999999C1178.9000000000008 449.69999999999993 1180.170000000001 448.9099999999999 1181.3100000000009 447.98999999999995L1181.6100000000008 447.74999999999994L1180.1300000000008 444.2099999999999C1181.3100000000009 443.0499999999999 1182.270000000001 441.7099999999999 1182.9800000000007 440.2299999999999L1186.8000000000006 440.4999999999999L1186.9300000000007 440.1399999999999C1187.1100000000008 439.6199999999999 1187.3600000000008 438.82999999999987 1187.5100000000007 438.1899999999999C1187.7000000000007 437.4199999999999 1187.8400000000006 436.6299999999999 1187.9300000000007 435.83999999999986L1187.9600000000007 435.46999999999986Z " fill="#eb4d4c" fill-opacity="1" transform="matrix(1,0,0,1,-1152,-416)"></path></svg>