<svg id="SvgjsSvg1009" xmlns="http://www.w3.org/2000/svg" version="1.1" xmlns:xlink="http://www.w3.org/1999/xlink" xmlns:svgjs="http://svgjs.com/svgjs" width="35" height="35" viewBox="0 0 35 35"><title>Fill 90</title><desc>Created with Avocode.</desc><defs id="SvgjsDefs1010"></defs><path id="SvgjsPath1011" d="M882.07 219.57C880.69 220.01 879.22 219.89 877.94 219.23C876.6500000000001 218.56 875.7 217.44 875.2600000000001 216.06C874.82 214.69 874.94 213.22 875.6000000000001 211.93C876.7700000000001 209.67000000000002 879.3200000000002 208.58 881.6900000000002 209.15C882.1000000000001 209.25 882.5100000000002 209.4 882.9000000000002 209.6C884.1800000000002 210.26 885.1300000000002 211.39 885.5700000000002 212.76999999999998C886.0100000000002 214.14 885.8900000000002 215.60999999999999 885.2300000000001 216.89C884.5700000000002 218.17999999999998 883.4400000000002 219.13 882.0700000000002 219.57ZM874.72 211.48C873.9300000000001 213 873.7900000000001 214.73999999999998 874.3100000000001 216.36999999999998C874.83 217.99999999999997 875.96 219.32999999999998 877.48 220.11999999999998C877.94 220.34999999999997 878.4200000000001 220.52999999999997 878.9200000000001 220.64999999999998C880.0500000000001 220.92999999999998 881.23 220.89 882.3700000000001 220.51999999999998C884.0000000000001 219.99999999999997 885.3300000000002 218.88 886.1200000000001 217.35C887.7400000000001 214.21 886.5000000000001 210.32999999999998 883.3500000000001 208.70999999999998C880.2100000000002 207.08999999999997 876.3400000000001 208.32999999999998 874.7200000000001 211.48Z " fill="#eb4d4c" fill-opacity="1" transform="matrix(1,0,0,1,-864,-197)"></path><path id="SvgjsPath1012" d="M896.7 219.51L893.11 219.26L892.97 219.57999999999998C892.28 221.1 891.3000000000001 222.45999999999998 890.07 223.61999999999998L889.82 223.85999999999999L891.21 227.19C890.35 227.85 889.4200000000001 228.43 888.4300000000001 228.91L886.07 226.2L885.74 226.32C884.13 226.92 882.45 227.19 880.74 227.12L880.39 227.11L878.97 230.43C878.44 230.35 877.9100000000001 230.25 877.39 230.12C876.89 230 876.37 229.85 875.86 229.67000000000002L876.11 226.07000000000002L875.8000000000001 225.93000000000004C874.2400000000001 225.20000000000005 872.8700000000001 224.19000000000003 871.71 222.92000000000004L871.47 222.65000000000003L868.19 224.07000000000002C867.5300000000001 223.19000000000003 866.96 222.24 866.48 221.23000000000002L869.21 218.86L869.1 218.54000000000002C868.5400000000001 216.96 868.3000000000001 215.3 868.38 213.62000000000003L868.4 213.27000000000004L865.09 211.85000000000005C865.1600000000001 211.36000000000004 865.26 210.88000000000005 865.37 210.41000000000005C865.51 209.84000000000006 865.69 209.26000000000005 865.89 208.69000000000005L869.51 208.94000000000005L869.65 208.64000000000004C870.39 207.12000000000003 871.36 205.81000000000003 872.54 204.73000000000005L872.8 204.50000000000006L871.4699999999999 201.18000000000006C872.3499999999999 200.52000000000007 873.3 199.95000000000007 874.3 199.48000000000008L876.68 202.22000000000008L877 202.10000000000008C878.38 201.5900000000001 879.9 201.36000000000007 881.7 201.39000000000007L882.0300000000001 201.39000000000007L883.4900000000001 198.08000000000007C884.0300000000001 198.16000000000008 884.5600000000002 198.26000000000008 885.0900000000001 198.39000000000007C885.6100000000001 198.52000000000007 886.1400000000001 198.67000000000007 886.6500000000001 198.85000000000008L886.4300000000001 202.47000000000008L886.73 202.61000000000007C887.96 203.19000000000008 889.44 204.26000000000008 890.59 205.41000000000008L890.82 205.64000000000007L894.19 204.31000000000006C894.85 205.17000000000007 895.4300000000001 206.11000000000007 895.9100000000001 207.10000000000005L893.2 209.47000000000006L893.32 209.79000000000005C893.84 211.20000000000005 894.13 212.95000000000005 894.11 214.57000000000005L894.11 214.91000000000005L897.44 216.34000000000006C897.36 216.93000000000006 897.25 217.52000000000007 897.11 218.10000000000005C897 218.55000000000004 896.84 219.08000000000004 896.7 219.51000000000005ZM895.11 214.25C895.09 212.73 894.83 211.13 894.37 209.77L897.14 207.36L896.98 207.02C896.38 205.72 895.63 204.5 894.74 203.39000000000001L894.51 203.11L891.06 204.47000000000003C890.15 203.61 888.8199999999999 202.55000000000004 887.4699999999999 201.86L887.6899999999999 198.17000000000002L887.3499999999999 198.04000000000002C886.6899999999999 197.79000000000002 886.0099999999999 197.58 885.3199999999999 197.42000000000002C884.64 197.25000000000003 883.9399999999999 197.13000000000002 883.2399999999999 197.04000000000002L882.8799999999999 197.00000000000003L881.3799999999999 200.39000000000001C879.7499999999999 200.39000000000001 878.2999999999998 200.60000000000002 876.9799999999999 201.05L874.5699999999999 198.26000000000002L874.2299999999999 198.41000000000003C872.9099999999999 199.00000000000003 871.68 199.74000000000004 870.56 200.61L870.26 200.85000000000002L871.61 204.23000000000002C870.53 205.27 869.62 206.50000000000003 868.91 207.9L865.2199999999999 207.64000000000001L865.0899999999999 207.99C864.81 208.71 864.5799999999999 209.44 864.3999999999999 210.17000000000002C864.2499999999999 210.8 864.1299999999999 211.45000000000002 864.0499999999998 212.09L863.9999999999999 212.47L867.3699999999999 213.92C867.3299999999999 215.5 867.56 217.04999999999998 868.0499999999998 218.54999999999998L865.2599999999999 220.96999999999997L865.4199999999998 221.30999999999997C865.9999999999999 222.62999999999997 866.7499999999999 223.86999999999998 867.6399999999999 224.99999999999997L867.8799999999999 225.29999999999998L871.2199999999999 223.85C872.3299999999999 225.01999999999998 873.6199999999999 225.97 875.06 226.68L874.81 230.35L875.16 230.48C875.8199999999999 230.73 876.5 230.94 877.16 231.1C877.8399999999999 231.26 878.53 231.39 879.2199999999999 231.47L879.5899999999999 231.51L881.04 228.13C882.63 228.15 884.24 227.9 885.77 227.37L888.17 230.14000000000001L888.51 229.98000000000002C889.81 229.38000000000002 891.03 228.62 892.13 227.73000000000002L892.42 227.50000000000003L891.01 224.11000000000004C892.13 223.00000000000003 893.05 221.72000000000006 893.73 220.31000000000003L897.39 220.56000000000003L897.52 220.20000000000002C897.6899999999999 219.71 897.93 218.96 898.0799999999999 218.34C898.2599999999999 217.6 898.3899999999999 216.84 898.4699999999999 216.08L898.5099999999999 215.71Z " fill="#eb4d4c" fill-opacity="1" transform="matrix(1,0,0,1,-864,-197)"></path></svg>