<svg id="SvgjsSvg1021" xmlns="http://www.w3.org/2000/svg" version="1.1" xmlns:xlink="http://www.w3.org/1999/xlink" xmlns:svgjs="http://svgjs.com/svgjs" width="25" height="25" viewBox="0 0 25 25"><title>Fill 98</title><desc>Created with Avocode.</desc><defs id="SvgjsDefs1022"></defs><path id="SvgjsPath1023" d="M1251.78 434.17C1249.83 433.7 1248.6299999999999 431.73 1249.1 429.78000000000003C1249.51 428.12 1251 427.00000000000006 1252.6399999999999 427.00000000000006C1252.9199999999998 427.00000000000006 1253.2099999999998 427.03000000000003 1253.4899999999998 427.1000000000001C1255.4399999999998 427.5800000000001 1256.6399999999999 429.5400000000001 1256.1699999999998 431.49000000000007C1255.6999999999998 433.44000000000005 1253.7199999999998 434.64000000000004 1251.7799999999997 434.1700000000001ZM1248.13 429.54C1247.5300000000002 432.03000000000003 1249.0600000000002 434.54 1251.5400000000002 435.14000000000004C1251.91 435.23 1252.2700000000002 435.27000000000004 1252.64 435.27000000000004C1254.72 435.27000000000004 1256.63 433.85 1257.14 431.73C1257.74 429.24 1256.21 426.73 1253.73 426.13C1251.24 425.53 1248.73 427.06 1248.13 429.54Z " fill="#eb4d4c" fill-opacity="1" transform="matrix(1,0,0,1,-1240,-419)"></path><path id="SvgjsPath1024" d="M1262.92 434.74L1260.42 434.57L1260.28 434.89C1259.81 435.93 1259.1399999999999 436.87 1258.29 437.66999999999996L1258.04 437.9L1259 440.21999999999997C1258.47 440.63 1257.89 440.97999999999996 1257.28 441.28999999999996L1255.6399999999999 439.4L1255.31 439.52C1254.21 439.93 1253.04 440.12 1251.87 440.07L1251.53 440.06L1250.54 442.37C1250.21 442.32 1249.8799999999999 442.25 1249.56 442.18C1249.25 442.1 1248.9299999999998 442.01 1248.61 441.90000000000003L1248.79 439.40000000000003L1248.48 439.25000000000006C1247.41 438.75000000000006 1246.46 438.06000000000006 1245.67 437.18000000000006L1245.43 436.9200000000001L1243.15 437.9100000000001C1242.74 437.3500000000001 1242.39 436.7600000000001 1242.0800000000002 436.1500000000001L1243.9800000000002 434.49000000000007L1243.8700000000003 434.1700000000001C1243.4900000000002 433.0900000000001 1243.3200000000004 431.95000000000005 1243.3800000000003 430.7900000000001L1243.4000000000003 430.44000000000005L1241.0900000000004 429.45000000000005C1241.1400000000003 429.16 1241.2000000000003 428.86000000000007 1241.2700000000004 428.57000000000005C1241.3600000000004 428.21000000000004 1241.4700000000005 427.85 1241.5900000000004 427.49000000000007L1244.1000000000004 427.6700000000001L1244.2500000000005 427.37000000000006C1244.7600000000004 426.32000000000005 1245.4200000000005 425.4200000000001 1246.2400000000005 424.68000000000006L1246.4900000000005 424.45000000000005L1245.5700000000004 422.13000000000005C1246.1200000000003 421.7300000000001 1246.7100000000005 421.38000000000005 1247.3300000000004 421.08000000000004L1248.9800000000005 422.99000000000007L1249.3100000000004 422.87000000000006C1250.2500000000005 422.52000000000004 1251.3100000000004 422.36000000000007 1252.5400000000004 422.38000000000005L1252.8700000000003 422.39000000000004L1253.8800000000003 420.09000000000003C1254.2200000000003 420.14000000000004 1254.5500000000004 420.20000000000005 1254.8700000000003 420.28000000000003C1255.2000000000003 420.36 1255.5200000000004 420.45000000000005 1255.8400000000004 420.56L1255.6900000000003 423.08L1255.9900000000002 423.21999999999997C1256.8400000000001 423.61999999999995 1257.8500000000001 424.35999999999996 1258.6500000000003 425.15L1258.8800000000003 425.38L1261.2200000000003 424.45C1261.6300000000003 425 1261.9900000000002 425.58 1262.2900000000002 426.19L1260.4 427.83L1260.52 428.15999999999997C1260.8799999999999 429.13 1261.08 430.33 1261.07 431.45L1261.06 431.78L1263.3799999999999 432.78C1263.32 433.15 1263.2499999999998 433.52 1263.1699999999998 433.88C1263.1 434.15 1263.0099999999998 434.46 1262.9199999999998 434.74ZM1262.06 431.12C1262.04 430.11 1261.87 429.05 1261.57 428.14L1263.52 426.45L1263.36 426.11C1262.9399999999998 425.18 1262.3999999999999 424.32 1261.78 423.54L1261.55 423.25L1259.12 424.21C1258.5 423.63 1257.62 422.94 1256.7299999999998 422.46999999999997L1256.8899999999999 419.88L1256.54 419.75C1256.08 419.57 1255.6 419.43 1255.11 419.31C1254.62 419.19 1254.1299999999999 419.1 1253.6399999999999 419.04L1253.27 419L1252.22 421.38C1251.14 421.39 1250.17 421.53 1249.29 421.82L1247.59 419.86L1247.25 420.01C1246.33 420.43 1245.45 420.95 1244.66 421.57L1244.3600000000001 421.8L1245.3100000000002 424.18C1244.6000000000001 424.88 1243.9900000000002 425.7 1243.5100000000002 426.63L1240.9200000000003 426.45L1240.7900000000002 426.78999999999996C1240.5900000000001 427.29999999999995 1240.4300000000003 427.81999999999994 1240.3000000000002 428.34C1240.1900000000003 428.78999999999996 1240.1100000000001 429.23999999999995 1240.0500000000002 429.7L1240.0000000000002 430.07L1242.3700000000001 431.09C1242.3500000000001 432.14 1242.5000000000002 433.17999999999995 1242.8200000000002 434.17999999999995L1240.8700000000001 435.87999999999994L1241.0200000000002 436.2199999999999C1241.4300000000003 437.1499999999999 1241.9600000000003 438.0299999999999 1242.5900000000001 438.8299999999999L1242.8300000000002 439.12999999999994L1245.18 438.11999999999995C1245.93 438.88999999999993 1246.79 439.5199999999999 1247.74 440.00999999999993L1247.56 442.5799999999999L1247.9099999999999 442.7099999999999C1248.3799999999999 442.88999999999993 1248.85 443.0299999999999 1249.33 443.1499999999999C1249.81 443.25999999999993 1250.3 443.3499999999999 1250.79 443.4099999999999L1251.1599999999999 443.4599999999999L1252.1799999999998 441.0799999999999C1253.2399999999998 441.11999999999995 1254.31 440.9199999999999 1255.34 440.56999999999994L1257.02 442.5199999999999L1257.37 442.3599999999999C1258.28 441.9299999999999 1259.1499999999999 441.3999999999999 1259.9299999999998 440.7699999999999L1260.2199999999998 440.5299999999999L1259.2299999999998 438.1499999999999C1259.9699999999998 437.3999999999999 1260.5799999999997 436.5499999999999 1261.0399999999997 435.6099999999999L1263.6099999999997 435.7899999999999L1263.7399999999998 435.4399999999999C1263.8599999999997 435.08999999999986 1264.0299999999997 434.5599999999999 1264.1399999999999 434.1199999999999C1264.27 433.5999999999999 1264.36 433.0599999999999 1264.4199999999998 432.51999999999987L1264.4599999999998 432.14999999999986Z " fill="#eb4d4c" fill-opacity="1" transform="matrix(1,0,0,1,-1240,-419)"></path></svg>