<svg id="SvgjsSvg1025" xmlns="http://www.w3.org/2000/svg" version="1.1" xmlns:xlink="http://www.w3.org/1999/xlink" xmlns:svgjs="http://svgjs.com/svgjs" width="636" height="450" viewBox="0 0 636 450"><title>Fill 5</title><desc>Created with Avocode.</desc><defs id="SvgjsDefs1026"></defs><path id="SvgjsPath1027" d="M975.38 401.29C980.95 401.29 985.46 405.8 985.46 411.37L985.46 434.29L1008.46 434.29L1008.46 288.29L996.46 288.29L996.46 312.04C1000.46 312.3 1002.4300000000001 315 1002.4300000000001 318.29C1002.4300000000001 321.76000000000005 999.8000000000001 324.57 996.33 324.57C992.87 324.57 989.9300000000001 321.76 989.9300000000001 318.29C989.9300000000001 315 992.46 312.3 995.46 312.04L995.46 288.29L880.46 288.29L880.46 320.29L904.46 320.29L904.46 321.29L880.46 321.29L880.46 326.29L900.46 326.29L900.46 329.39000000000004C900.46 331.99000000000007 898.48 334.29 895.88 334.29L791.46 334.29L791.46 380.29L799.46 380.29L799.46 430.81C800.46 431.59 802.0500000000001 432.8 802.99 434.29L825.46 434.29L825.46 380.91C825.46 375.36 829.82 371.29 835.38 371.29L961.54 371.29C967.0999999999999 371.29 971.4599999999999 375.36 971.4599999999999 380.91L971.4599999999999 401.29ZM1137.44 358.39C1167.94 358.39 1196.64 340.71 1210.71 313.28999999999996L1171.04 313.28999999999996C1165.75 313.28999999999996 1161.46 308.99999999999994 1161.46 303.71L1161.46 245.86999999999998C1161.46 240.57999999999998 1165.75 236.28999999999996 1171.04 236.28999999999996L1209.74 236.28999999999996C1195.41 209.56999999999996 1167.86 193.03999999999996 1137.44 193.03999999999996C1107.01 193.03999999999996 1079.46 209.56999999999996 1065.13 236.28999999999996L1114.88 236.28999999999996C1120.17 236.28999999999996 1124.46 240.57999999999996 1124.46 245.86999999999998L1124.46 303.71C1124.46 309 1120.17 313.28999999999996 1114.88 313.28999999999996L1064.16 313.28999999999996C1078.23 340.71 1106.93 358.39 1137.44 358.39ZM839.46 411.37C839.46 405.8 843.98 401.29 849.5400000000001 401.29L968.46 401.29L968.46 390.29L828.46 390.29L828.46 490.09000000000003C828.46 493.99 831.48 497.29 835.38 497.29L839.46 497.29ZM982.46 420.29L842.46 420.29L842.46 520.21C842.46 524.12 845.63 527.2900000000001 849.5400000000001 527.2900000000001L975.3800000000001 527.2900000000001C979.2900000000001 527.2900000000001 982.4600000000002 524.1200000000001 982.4600000000002 520.21ZM1137.46 488.29L1275.46 488.29L1275.46 409.70000000000005C1275.46 407.82000000000005 1273.94 406.29 1272.06 406.29L1140.87 406.29C1138.9899999999998 406.29 1137.4599999999998 407.82 1137.4599999999998 409.70000000000005ZM754.46 326.29L758.46 326.29L758.46 256.48C758.46 255.24 759.21 254.29000000000002 760.46 254.29000000000002L873.1 254.29000000000002C874.35 254.29000000000002 875.46 255.24 875.46 256.48L875.46 326.29L878.46 326.29L878.46 252.26000000000002C878.46 251.36 877.6600000000001 250.29000000000002 876.75 250.29000000000002L755.95 250.29000000000002C755.0500000000001 250.29000000000002 754.46 251.36 754.46 252.26000000000002ZM874.46 326.29L874.46 256.48C874.46 255.79000000000002 873.8000000000001 255.29000000000002 873.1 255.29000000000002L760.46 255.29000000000002C759.76 255.29000000000002 759.46 255.79000000000002 759.46 256.48L759.46 326.29ZM1114.88 311.29C1119.0700000000002 311.29 1122.46 307.90000000000003 1122.46 303.71000000000004L1122.46 248.29000000000002L1039.46 248.29000000000002L1039.46 303.71000000000004C1039.46 307.90000000000003 1042.8600000000001 311.29 1047.04 311.29ZM1246.46 248.29L1163.46 248.29L1163.46 303.71C1163.46 307.9 1166.8600000000001 311.28999999999996 1171.04 311.28999999999996L1238.8799999999999 311.28999999999996C1243.07 311.28999999999996 1246.4599999999998 307.9 1246.4599999999998 303.71ZM776.86 240.14C776.69 241.67 776.6 243.26999999999998 776.6 244.79C776.6 245.95 776.65 247.16 776.74 248.29L802.25 248.29C801.99 247.23999999999998 801.85 245.85 801.85 244.66C801.85 236.39 808.58 229.67 816.84 229.67C825.11 229.67 831.84 236.39999999999998 831.84 244.66C831.84 245.85 831.7 247.24 831.44 248.29L856.94 248.29C857.0200000000001 247.16 857.09 245.75 857.09 244.67C857.09 243.14 857.01 241.6 856.83 240.07999999999998L848.0600000000001 238.58999999999997L847.9100000000001 237.93999999999997C847.0100000000001 234.02999999999997 845.3000000000001 230.00999999999996 843.22 226.92999999999998L842.83 226.34999999999997L847.95 219.13999999999996C846.1600000000001 216.94999999999996 844.1400000000001 214.95999999999995 841.95 213.20999999999995L834.6800000000001 218.33999999999995L834.1200000000001 217.99999999999994C831.4300000000001 216.35999999999996 827.1600000000001 214.32999999999996 823.2500000000001 213.52999999999994L822.5800000000002 213.39999999999995L821.0200000000002 204.62999999999994C818.2500000000002 204.34999999999994 815.4500000000002 204.34999999999994 812.6800000000002 204.62999999999994L811.1000000000001 213.37999999999994L810.4600000000002 213.52999999999994C806.1500000000002 214.48999999999995 802.6000000000001 215.94999999999993 799.6100000000001 217.96999999999994L799.0300000000001 218.35999999999993L791.7600000000001 213.19999999999993C789.5400000000001 214.96999999999994 787.5200000000001 216.95999999999992 785.7300000000001 219.13999999999993L790.8200000000002 226.29999999999993L790.4300000000002 226.87999999999994C788.2200000000001 230.15999999999994 786.6500000000002 233.87999999999994 785.7800000000002 237.94999999999993L785.6400000000002 238.61999999999992ZM968.46 389.29L968.46 380.91C968.46 377.01000000000005 965.45 374.29 961.5400000000001 374.29L835.3800000000001 374.29C831.4800000000001 374.29 828.4600000000002 377.01000000000005 828.4600000000002 380.91L828.4600000000002 389.29ZM982.46 411.37C982.46 407.46 979.2900000000001 404.29 975.38 404.29L849.54 404.29C845.63 404.29 842.4599999999999 407.46000000000004 842.4599999999999 411.37L842.4599999999999 419.29L982.4599999999999 419.29ZM1137.46 496.88C1137.46 498.77 1138.99 500.29 1140.8700000000001 500.29L1272.0600000000002 500.29C1273.9400000000003 500.29 1275.4600000000003 498.77000000000004 1275.4600000000003 496.88L1275.4600000000003 489.29L1137.4600000000003 489.29ZM985.46 435.29L985.46 442.29L1134.46 442.29L1134.46 435.29ZM1039.46 247.29L1122.46 247.29L1122.46 245.87C1122.46 241.69 1119.07 238.29 1114.88 238.29L1047.0400000000002 238.29C1042.8600000000001 238.29 1039.4600000000003 241.69 1039.4600000000003 245.87ZM1246.46 245.87C1246.46 241.69 1243.07 238.29 1238.88 238.29L1171.0400000000002 238.29C1166.8600000000001 238.29 1163.4600000000003 241.69 1163.4600000000003 245.87L1163.4600000000003 247.29L1246.4600000000003 247.29ZM895.88 332.29C897.38 332.29 898.46 330.89000000000004 898.46 329.39000000000004L898.46 328.29L827.46 328.29L827.46 329.76000000000005C827.46 330.59000000000003 826.33 331.29 825.5 331.29L808.19 331.29C807.09 331.29 806.46 330.36 806.46 329.26000000000005L806.46 328.29L735.46 328.29L735.46 330.56C735.46 331.41 735.7900000000001 332.29 736.64 332.29ZM1221.41 517.9L1219.03 503.28999999999996L1192.96 503.28999999999996L1189.9 517.93L1186.8200000000002 520.29L1224.5100000000002 520.29ZM830.84 244.66C830.84 236.95 824.5600000000001 230.67 816.84 230.67C809.13 230.67 802.85 236.95 802.85 244.66C802.85 245.85 803.01 247.24 803.2900000000001 248.29L830.4000000000001 248.29C830.6800000000001 247.23999999999998 830.8400000000001 245.85 830.8400000000001 244.66ZM791.46 430.52C792.5500000000001 430.09 793.9000000000001 429.84999999999997 795.14 429.84999999999997C796.25 429.84999999999997 797.46 430.04999999999995 798.46 430.39L798.46 381.28999999999996L791.46 381.28999999999996ZM1276.3 318.29C1276.3 313.61 1272.49 309.81 1267.81 309.81C1263.1299999999999 309.81 1259.32 313.61 1259.32 318.29C1259.32 322.97 1263.1299999999999 326.78000000000003 1267.81 326.78000000000003C1272.49 326.78000000000003 1276.3 322.97 1276.3 318.29ZM693.3 332.01C693.3 336.69 697.0999999999999 340.5 701.78 340.5C706.4599999999999 340.5 710.27 336.69 710.27 332.01C710.27 327.33 706.46 323.53 701.78 323.53C697.1 323.53 693.3 327.33 693.3 332.01ZM782.31 164.49C782.31 169.17000000000002 786.1199999999999 172.97 790.8 172.97C795.4799999999999 172.97 799.28 169.17 799.28 164.49C799.28 159.81 795.48 156 790.8 156C786.12 156 782.31 159.81 782.31 164.49ZM1008.78 221.87C1013.4599999999999 221.87 1017.27 218.07 1017.27 213.39000000000001C1017.27 208.71 1013.46 204.9 1008.78 204.9C1004.1 204.9 1000.3 208.71 1000.3 213.39000000000001C1000.3 218.07000000000002 1004.0999999999999 221.87 1008.78 221.87ZM794.96 447.82C799.64 447.82 803.45 444.01 803.45 439.33C803.45 434.65 799.6400000000001 430.84999999999997 794.96 430.84999999999997C790.2900000000001 430.84999999999997 786.48 434.65 786.48 439.33C786.48 444.01 790.29 447.82 794.96 447.82ZM673.27 387.23C676.73 387.23 679.54 384.42 679.54 380.96000000000004C679.54 377.50000000000006 676.73 374.69000000000005 673.27 374.69000000000005C669.81 374.69000000000005 667 377.50000000000006 667 380.96000000000004C667 384.42 669.81 387.23 673.27 387.23ZM825.46 435.29L803.5400000000001 435.29C804.1200000000001 436.52000000000004 804.45 437.89000000000004 804.45 439.33000000000004C804.45 440.37000000000006 804.2800000000001 441.36 803.97 442.29L825.46 442.29ZM1013.63 353.1C1013.63 356.01000000000005 1016 358.38 1018.91 358.38C1021.8199999999999 358.38 1024.19 356.01 1024.19 353.1C1024.19 350.19 1021.82 347.82000000000005 1018.9100000000001 347.82000000000005C1016.0000000000001 347.82000000000005 1013.6300000000001 350.19000000000005 1013.6300000000001 353.1ZM1273.59 543.94C1270.6799999999998 543.94 1268.31 546.3100000000001 1268.31 549.22C1268.31 552.13 1270.6799999999998 554.5 1273.59 554.5C1276.5 554.5 1278.87 552.13 1278.87 549.22C1278.87 546.3100000000001 1276.5 543.94 1273.59 543.94ZM905.8 598.5C905.8 595.59 903.43 593.22 900.52 593.22C897.61 593.22 895.24 595.59 895.24 598.5C895.24 601.41 897.61 603.78 900.52 603.78C903.43 603.78 905.8 601.41 905.8 598.5ZM996.18 313.02C993.27 313.02 990.9 315.38 990.9 318.28999999999996C990.9 321.2 993.27 323.56999999999994 996.18 323.56999999999994C999.0899999999999 323.56999999999994 1001.4599999999999 321.19999999999993 1001.4599999999999 318.28999999999996C1001.4599999999999 315.37999999999994 999.0899999999999 313.02 996.18 313.02ZM944.3 238.5C947.2099999999999 238.5 949.5699999999999 236.13 949.5699999999999 233.22C949.5699999999999 230.31 947.2099999999999 227.94 944.3 227.94C941.38 227.94 939.02 230.31 939.02 233.22C939.02 236.13 941.38 238.5 944.3 238.5ZM1294.8 275.5C1297.71 275.5 1300.07 273.13 1300.07 270.22C1300.07 267.31 1297.71 264.94000000000005 1294.8 264.94000000000005C1291.8899999999999 264.94000000000005 1289.52 267.31000000000006 1289.52 270.22C1289.52 273.13000000000005 1291.8899999999999 275.5 1294.8 275.5ZM1027.3 475.5C1030.21 475.5 1032.57 473.13 1032.57 470.22C1032.57 467.31 1030.21 464.94000000000005 1027.3 464.94000000000005C1024.3799999999999 464.94000000000005 1022.02 467.31000000000006 1022.02 470.22C1022.02 473.13000000000005 1024.3799999999999 475.5 1027.3 475.5ZM1212.05 571.5C1212.05 568.59 1209.69 566.22 1206.78 566.22C1203.87 566.22 1201.5 568.59 1201.5 571.5C1201.5 574.41 1203.87 576.78 1206.78 576.78C1209.69 576.78 1212.05 574.41 1212.05 571.5ZM807.46 328.29L807.46 329.26000000000005C807.46 329.81000000000006 807.64 330.29 808.19 330.29L825.5 330.29C825.78 330.29 826.46 330.04 826.46 329.76000000000005L826.46 328.29ZM1294.8 263.94C1298.26 263.94 1301.07 266.76 1301.07 270.21999999999997C1301.07 273.67999999999995 1298.26 276.49999999999994 1294.8 276.49999999999994C1291.36 276.49999999999994 1288.56 273.71999999999997 1288.52 270.28999999999996L1268.46 270.28999999999996L1268.46 308.83C1273.46 309.09 1277.39 313.22999999999996 1277.39 318.28999999999996C1277.39 323.52 1273.0800000000002 327.78 1267.8500000000001 327.78C1262.6200000000001 327.78 1258.4 323.52 1258.4 318.28999999999996C1258.4 313.22999999999996 1262.46 309.09 1267.46 308.83L1267.46 270.28999999999996L1248.46 270.28999999999996L1248.46 303.71C1248.46 309 1244.17 313.28999999999996 1238.88 313.28999999999996L1227.1000000000001 313.28999999999996C1211.7900000000002 349.38 1176.46 372.64 1137.46 372.64L1137.46 371.64C1176.46 371.64 1210.77 348.78999999999996 1226.02 313.28999999999996L1214.07 313.28999999999996L1213.86 313.72999999999996C1199.4499999999998 343.12999999999994 1170.1699999999998 361.37999999999994 1137.4399999999998 361.37999999999994C1104.7099999999998 361.37999999999994 1075.4299999999998 343.12999999999994 1061.0199999999998 313.72999999999996L1060.8099999999997 313.28999999999996L1048.8499999999997 313.28999999999996C1060.7499999999998 340.96999999999997 1085.1699999999996 361.69999999999993 1114.3999999999996 368.86999999999995L1114.1599999999996 369.84C1084.4899999999996 362.57 1059.7199999999996 341.45 1047.7599999999995 313.28999999999996L1047.0399999999995 313.28999999999996C1041.7499999999995 313.28999999999996 1037.4599999999996 308.99999999999994 1037.4599999999996 303.71L1037.4599999999996 270.28999999999996L1009.4599999999996 270.28999999999996L1009.4599999999996 434.28999999999996L1018.4599999999996 434.28999999999996L1018.4599999999996 359.35999999999996C1015.4599999999996 359.09999999999997 1012.6199999999995 356.4 1012.6199999999995 353.09999999999997C1012.6199999999995 349.64 1015.3699999999995 346.82 1018.8299999999996 346.82C1022.2899999999996 346.82 1025.1499999999996 349.64 1025.1499999999996 353.09999999999997C1025.1499999999996 356.4 1022.4599999999996 359.09999999999997 1019.4599999999996 359.35999999999996L1019.4599999999996 434.28999999999996L1134.4599999999996 434.28999999999996L1134.4599999999996 409.7C1134.4599999999996 406.15999999999997 1137.3299999999995 403.28999999999996 1140.8699999999997 403.28999999999996L1272.0599999999997 403.28999999999996C1275.5899999999997 403.28999999999996 1278.4599999999998 406.15999999999997 1278.4599999999998 409.7L1278.4599999999998 496.88C1278.4599999999998 500.42 1275.59 503.29 1272.0599999999997 503.29L1222.0999999999997 503.29L1224.2599999999998 516.25L1228.4599999999998 519.42L1228.4599999999998 520.16C1228.4599999999998 521.89 1226.87 523.29 1225.1399999999999 523.29L1207.4599999999998 523.29L1207.4599999999998 548.29L1267.3899999999999 548.29C1267.84 545.27 1270.4399999999998 542.9399999999999 1273.59 542.9399999999999C1277.05 542.9399999999999 1279.87 545.76 1279.87 549.2199999999999C1279.87 552.68 1277.05 555.4999999999999 1273.59 555.4999999999999C1270.1499999999999 555.4999999999999 1267.35 552.7199999999999 1267.31 549.2899999999998L1207.46 549.2899999999998L1207.46 565.2499999999999C1210.46 565.4999999999999 1213.07 568.2099999999999 1213.07 571.4999999999999C1213.07 574.9599999999999 1210.09 577.7799999999999 1206.6299999999999 577.7799999999999C1203.1699999999998 577.7799999999999 1200.4599999999998 574.9599999999998 1200.4599999999998 571.4999999999999C1200.4599999999998 568.2099999999999 1202.4599999999998 565.4999999999999 1206.4599999999998 565.2499999999999L1206.4599999999998 549.2899999999998L1178.4599999999998 549.2899999999998L1178.4599999999998 548.2899999999998L1206.4599999999998 548.2899999999998L1206.4599999999998 523.2899999999998L1186.1899999999998 523.2899999999998C1184.4599999999998 523.2899999999998 1183.4599999999998 521.8899999999999 1183.4599999999998 520.1599999999999L1183.4599999999998 519.4199999999998L1187.3999999999999 516.2299999999998L1189.9299999999998 503.2899999999998L1140.87 503.2899999999998C1137.33 503.2899999999998 1134.4599999999998 500.4199999999998 1134.4599999999998 496.87999999999977L1134.4599999999998 470.2899999999998L1033.5699999999997 470.2899999999998C1033.5299999999997 473.7199999999998 1030.7299999999998 476.4999999999998 1027.2999999999997 476.4999999999998C1023.8299999999997 476.4999999999998 1021.0199999999998 473.6799999999998 1021.0199999999998 470.2199999999998C1021.0199999999998 466.7599999999998 1023.8299999999997 463.9399999999998 1027.2999999999997 463.9399999999998C1030.4399999999998 463.9399999999998 1033.0499999999997 466.2699999999998 1033.4999999999998 469.28999999999985L1134.4599999999998 469.28999999999985L1134.4599999999998 443.28999999999985L985.4599999999998 443.28999999999985L985.4599999999998 520.2099999999998C985.4599999999998 525.7799999999999 980.9499999999998 530.2899999999998 975.3799999999998 530.2899999999998L901.4599999999998 530.2899999999998L901.4599999999998 592.2499999999999C904.4599999999998 592.4999999999999 907.0699999999998 595.2099999999999 907.0699999999998 598.4999999999999C907.0699999999998 601.9599999999999 904.0899999999998 604.7799999999999 900.6299999999998 604.7799999999999C897.1699999999997 604.7799999999999 894.4599999999998 601.9599999999998 894.4599999999998 598.4999999999999C894.4599999999998 595.2099999999999 896.4599999999998 592.4999999999999 900.4599999999998 592.2499999999999L900.4599999999998 530.2899999999998L849.5399999999998 530.2899999999998C843.9799999999999 530.2899999999998 839.4599999999998 525.7799999999999 839.4599999999998 520.2099999999998L839.4599999999998 500.2899999999998L835.3799999999998 500.2899999999998C829.8199999999998 500.2899999999998 825.4599999999998 495.6499999999998 825.4599999999998 490.0899999999998L825.4599999999998 443.2899999999998L803.5799999999998 443.2899999999998C802.0699999999998 446.5499999999998 798.7799999999999 448.8499999999998 794.9699999999998 448.8499999999998C791.1299999999998 448.8499999999998 787.8199999999998 446.2899999999998 786.3299999999998 443.2899999999998L725.4599999999998 443.2899999999998L725.4599999999998 442.2899999999998L785.9399999999998 442.2899999999998C785.6399999999999 441.2899999999998 785.4799999999998 440.2899999999998 785.4799999999998 439.2799999999998C785.4799999999998 437.8999999999998 785.7799999999997 436.2899999999998 786.3199999999998 435.2899999999998L706.4599999999998 435.2899999999998L706.4599999999998 434.2899999999998L786.8399999999998 434.2899999999998C787.7199999999998 433.2899999999998 788.9699999999998 431.7899999999998 790.4599999999998 430.9799999999998L790.4599999999998 381.2899999999998L680.5199999999998 381.2899999999998C680.2599999999998 385.2899999999998 677.1099999999998 388.1199999999998 673.2699999999998 388.1199999999998C669.2599999999998 388.1199999999998 665.9999999999998 384.9199999999998 665.9999999999998 380.9199999999998C665.9999999999998 376.9099999999998 669.2599999999998 373.6099999999998 673.2699999999998 373.6099999999998C677.1099999999998 373.6099999999998 680.2599999999998 376.2899999999998 680.5199999999998 380.2899999999998L701.4599999999998 380.2899999999998L701.4599999999998 341.4699999999998C696.4599999999998 341.2099999999998 692.4099999999999 337.0799999999998 692.4099999999999 332.0099999999998C692.4099999999999 326.7799999999998 696.5999999999999 322.5199999999998 701.8299999999998 322.5199999999998C707.0599999999998 322.5199999999998 711.3599999999998 326.7799999999998 711.3599999999998 332.0099999999998C711.3599999999998 337.0799999999998 707.4599999999998 341.2099999999998 702.4599999999998 341.4699999999998L702.4599999999998 380.2899999999998L790.4599999999998 380.2899999999998L790.4599999999998 334.2899999999998L736.6399999999998 334.2899999999998C734.6799999999997 334.2899999999998 733.4599999999998 332.5099999999998 733.4599999999998 330.5599999999998L733.4599999999998 326.2899999999998L752.4599999999998 326.2899999999998L752.4599999999998 321.2899999999998L728.4599999999998 321.2899999999998L728.4599999999998 320.2899999999998L752.4599999999998 320.2899999999998L752.4599999999998 252.2599999999998C752.4599999999998 250.2499999999998 753.9399999999998 248.2899999999998 755.9499999999998 248.2899999999998L774.7299999999998 248.2899999999998C774.6399999999998 247.0699999999998 774.5999999999998 246.0399999999998 774.5999999999998 244.9099999999998C774.5999999999998 243.0099999999998 774.7299999999998 240.8799999999998 774.9699999999998 239.0899999999998L775.0699999999998 238.35999999999981L783.9699999999998 236.84999999999982C784.8699999999998 233.02999999999983 786.3499999999998 229.49999999999983 788.3899999999998 226.33999999999983L783.2199999999998 219.06999999999982L783.6899999999998 218.47999999999982C785.6699999999998 215.97999999999982 787.9499999999998 213.7099999999998 790.4599999999998 211.69999999999982L790.4599999999998 173.9599999999998C785.3899999999998 173.7799999999998 781.3099999999998 169.60999999999981 781.3099999999998 164.4899999999998C781.3099999999998 159.25999999999982 785.5699999999998 154.9999999999998 790.7999999999998 154.9999999999998C796.0299999999999 154.9999999999998 800.2799999999999 159.2599999999998 800.2799999999999 164.4899999999998C800.2799999999999 169.4899999999998 796.3799999999999 173.5999999999998 791.4599999999998 173.9399999999998L791.4599999999998 210.88999999999982L791.7099999999998 210.7099999999998L799.0699999999998 215.9299999999998C801.9899999999998 214.0599999999998 805.3699999999998 212.6799999999998 809.3699999999998 211.72999999999982L810.9699999999998 202.81999999999982L811.6999999999998 202.72999999999982C815.1199999999998 202.31999999999982 818.5799999999998 202.31999999999982 821.9899999999998 202.72999999999982L822.7299999999998 202.81999999999982L824.3199999999998 211.71999999999983C828.8299999999998 212.76999999999984 833.0299999999999 215.04999999999984 834.5999999999998 215.94999999999982L842.0099999999998 210.71999999999983L842.5999999999998 211.16999999999982C845.3299999999998 213.27999999999983 847.8199999999998 215.7399999999998 849.9899999999998 218.4899999999998L850.4599999999998 219.0799999999998L845.2599999999998 226.40999999999983C847.1699999999997 229.39999999999984 848.7699999999998 233.17999999999984 849.6999999999998 236.87999999999982L858.6399999999999 238.41999999999982L858.7299999999999 239.21999999999983C858.9699999999999 241.02999999999983 859.0899999999999 242.99999999999983 859.0899999999999 244.90999999999983C859.0899999999999 245.85999999999981 859.04 247.17999999999984 858.9699999999999 248.28999999999982L876.7499999999999 248.28999999999982C878.7599999999999 248.28999999999982 880.4599999999999 250.24999999999983 880.4599999999999 252.25999999999982L880.4599999999999 287.28999999999985L1008.4599999999999 287.28999999999985L1008.4599999999999 233.28999999999985L950.5699999999999 233.28999999999985C950.53 236.71999999999986 947.7299999999999 239.49999999999986 944.3 239.49999999999986C940.8299999999999 239.49999999999986 938.02 236.67999999999986 938.02 233.21999999999986C938.02 229.75999999999985 940.8299999999999 226.93999999999986 944.3 226.93999999999986C947.4399999999999 226.93999999999986 950.05 229.26999999999987 950.5 232.28999999999985L1008.46 232.28999999999985L1008.46 222.85999999999984C1003.38 222.68999999999986 999.3000000000001 218.50999999999985 999.3000000000001 213.38999999999984C999.3000000000001 208.15999999999985 1003.5500000000001 203.89999999999984 1008.7800000000001 203.89999999999984C1014.0200000000001 203.89999999999984 1018.2700000000001 208.15999999999983 1018.2700000000001 213.38999999999984C1018.2700000000001 218.38999999999984 1014.3800000000001 222.48999999999984 1009.4600000000002 222.83999999999983L1009.4600000000002 269.28999999999985L1037.46 269.28999999999985L1037.46 245.86999999999983C1037.46 240.57999999999984 1041.75 236.28999999999982 1047.04 236.28999999999982L1048.1499999999999 236.28999999999982C1050.9599999999998 229.86999999999983 1054.4699999999998 223.72999999999982 1058.6 218.0499999999998C1076.8899999999999 192.87999999999982 1106.36 177.8499999999998 1137.4399999999998 177.8499999999998C1157.9499999999998 177.8499999999998 1177.57 184.1499999999998 1194.1699999999998 196.0699999999998L1193.59 196.8799999999998C1177.1499999999999 185.0899999999998 1157.74 178.8499999999998 1137.4399999999998 178.8499999999998C1106.6799999999998 178.8499999999998 1077.5099999999998 193.7199999999998 1059.4099999999999 218.6399999999998C1055.3999999999999 224.1399999999998 1051.9899999999998 230.07999999999979 1049.2399999999998 236.2899999999998L1061.7399999999998 236.2899999999998C1076.4499999999998 208.1699999999998 1106.0899999999997 190.0399999999998 1137.4399999999998 190.0399999999998C1168.7699999999998 190.0399999999998 1198.4099999999999 208.1699999999998 1213.1299999999999 236.2899999999998L1225.62 236.2899999999998C1221.7399999999998 227.51999999999978 1216.59 219.3899999999998 1210.28 212.1099999999998L1211.03 211.4499999999998C1217.51 218.9199999999998 1222.78 227.2799999999998 1226.71 236.2899999999998L1238.88 236.2899999999998C1244.17 236.2899999999998 1248.46 240.57999999999979 1248.46 245.8699999999998L1248.46 269.2899999999998L1267.46 269.2899999999998L1267.46 256.2899999999998L1268.46 256.2899999999998L1268.46 269.2899999999998L1288.5900000000001 269.2899999999998C1289.0500000000002 266.2699999999998 1291.65 263.93999999999977 1294.8000000000002 263.93999999999977Z " fill="#ffefe4" fill-opacity="1" transform="matrix(1,0,0,1,-666,-155)"></path></svg>