<svg id="SvgjsSvg1037" xmlns="http://www.w3.org/2000/svg" version="1.1" xmlns:xlink="http://www.w3.org/1999/xlink" xmlns:svgjs="http://svgjs.com/svgjs" width="236" height="264" viewBox="0 0 236 264"><title>Fill 1</title><desc>Created with Avocode.</desc><defs id="SvgjsDefs1038"></defs><path id="SvgjsPath1039" d="M662.38 5958.22C651.81 5951.2 643.75 5942.01 640.2 5932.860000000001C636.84 5924.210000000001 635.57 5914.9400000000005 634.34 5905.9800000000005L635.7900000000001 5905.77C637.0100000000001 5914.660000000001 638.2700000000001 5923.84 641.57 5932.330000000001C644.9200000000001 5940.970000000001 652.44 5949.660000000001 662.35 5956.4400000000005C662.28 5954.210000000001 662.1 5951.9800000000005 661.7 5949.8C660.97 5945.9400000000005 659.1800000000001 5942.5 657.2900000000001 5938.85C655.35 5935.110000000001 653.35 5931.240000000001 652.5600000000001 5926.85C652.0600000000001 5924.06 652.62 5919.780000000001 653.2700000000001 5914.84C654.9200000000001 5902.16 655.6200000000001 5892.39 648.5300000000001 5891.38L648.94 5888.47C659.47 5889.97 657.6500000000001 5903.97 656.1800000000001 5915.22C655.59 5919.7300000000005 655.0300000000001 5923.990000000001 655.45 5926.34C656.1600000000001 5930.28 657.98 5933.79 659.9000000000001 5937.5C661.8000000000001 5941.17 663.7700000000001 5944.97 664.58 5949.26C665.4100000000001 5953.66 665.36 5958.13 665.3100000000001 5962.4400000000005C665.2700000000001 5966.56 665.22 5970.830000000001 665.96 5974.89C667.0500000000001 5980.860000000001 669.75 5986.240000000001 672.61 5991.950000000001C674.98 5996.670000000001 677.4300000000001 6001.550000000001 678.86 6006.77C679.79 6010.200000000001 680.27 6013.740000000001 680.73 6017.160000000001C681.07 6019.630000000001 681.41 6022.180000000001 681.9200000000001 6024.630000000001C683.34 6031.450000000001 686.0300000000001 6036.340000000001 689.9000000000001 6039.160000000001C693.9800000000001 6042.14 700.8500000000001 6042.550000000001 704.1800000000001 6038.360000000001C705.5100000000001 6036.68 706.2600000000001 6034.34 706.4000000000001 6031.39C706.9300000000001 6020.55 700.5000000000001 6010.660000000001 694.2800000000001 6001.09C692.5500000000001 5998.43 690.9100000000001 5995.92 689.4300000000001 5993.39C682.46 5981.52 679.33 5966.52 680.5500000000001 5951C678.85 5944.75 675.5000000000001 5937 672.5200000000001 5932.65C666.8500000000001 5924.37 666.5100000000001 5913.46 671.6500000000001 5904.839999999999L672.9100000000001 5905.589999999999C668.07 5913.719999999999 668.3900000000001 5924.009999999999 673.7300000000001 5931.819999999999C676.2600000000001 5935.519999999999 679.0500000000002 5941.5999999999985 680.9300000000002 5947.219999999998C681.3000000000002 5943.989999999999 681.7400000000001 5940.739999999999 682.2000000000002 5937.579999999998C683.7600000000001 5926.809999999998 685.3700000000001 5915.669999999998 682.9200000000002 5904.969999999998C680.3100000000002 5893.5999999999985 673.2600000000002 5883.859999999999 663.5700000000002 5878.269999999999L665.0400000000002 5875.729999999999C675.4300000000002 5881.729999999999 682.9900000000002 5892.149999999999 685.7800000000002 5904.309999999999C688.3600000000002 5915.549999999998 686.7000000000002 5926.959999999998 685.1100000000002 5937.999999999998C684.5500000000003 5941.829999999998 683.9800000000002 5945.789999999998 683.6000000000003 5949.6399999999985C682.0900000000003 5965.129999999998 685.0600000000003 5980.1399999999985 691.9600000000003 5991.909999999999C693.4100000000003 5994.379999999999 695.0300000000003 5996.859999999999 696.7400000000002 5999.489999999999C702.9100000000002 6008.989999999999 709.9100000000002 6019.739999999999 709.3400000000003 6031.529999999999C709.1600000000003 6035.0999999999985 708.2000000000003 6038.019999999999 706.4700000000003 6040.189999999999C704.1500000000002 6043.119999999999 700.6600000000003 6044.399999999999 697.1200000000002 6044.399999999999C693.9200000000002 6044.399999999999 690.6700000000002 6043.359999999999 688.1700000000002 6041.529999999999C683.6900000000002 6038.269999999999 680.6200000000002 6032.779999999999 679.0500000000002 6025.229999999999C678.5100000000002 6022.6799999999985 678.1600000000002 6020.069999999999 677.8200000000002 6017.549999999998C677.3700000000001 6014.229999999999 676.9100000000002 6010.789999999998 676.0200000000002 6007.549999999998C674.6800000000002 6002.609999999999 672.2900000000002 5997.859999999999 669.9900000000002 5993.259999999998C667.1600000000002 5987.629999999998 664.2400000000002 5981.799999999998 663.0700000000003 5975.419999999998C662.2800000000003 5971.079999999998 662.3300000000003 5966.669999999998 662.3800000000002 5962.409999999998C662.3900000000002 5961.029999999998 662.4000000000002 5959.629999999998 662.3800000000002 5958.219999999998ZM743.09 6046.5C743.2900000000001 6052.21 743.57 6060.03 736.39 6062.42C735.0699999999999 6062.87 733.61 6063.09 732.03 6063.09C731.03 6063.09 729.99 6063 728.9 6062.81C724.6 6062.1 720.85 6060.160000000001 718.34 6057.360000000001C711.88 6050.120000000001 716.0600000000001 6039.860000000001 719.1 6032.360000000001C719.46 6031.500000000001 719.8000000000001 6030.660000000001 720.11 6029.860000000001C720.9 6027.81 721.73 6025.750000000001 722.57 6023.660000000001C726 6015.120000000001 729.5400000000001 6006.290000000001 731.34 5997.52C733.4100000000001 5987.39 732.6800000000001 5975.46 729.1800000000001 5962.06C729.0100000000001 5961.370000000001 728.82 5960.68 728.6300000000001 5959.990000000001C727.4000000000001 5955.410000000001 726.1300000000001 5950.670000000001 726.4000000000001 5945.800000000001C726.58 5942.5700000000015 727.5400000000001 5939.450000000001 728.46 5936.430000000001C729.1700000000001 5934.090000000001 729.85 5931.890000000001 730.2 5929.640000000001C731.12 5923.680000000001 730.4200000000001 5917.490000000002 728.1700000000001 5911.740000000002C727.2800000000001 5909.480000000001 726.1200000000001 5907.340000000002 725.0000000000001 5905.270000000001C723.1600000000001 5901.8600000000015 721.2500000000001 5898.330000000002 720.4200000000001 5894.090000000001C718.4300000000001 5883.9000000000015 719.9200000000001 5873.720000000001 721.44 5866.000000000001L724.32 5866.570000000001C722.1400000000001 5877.650000000001 721.83 5885.97 723.3000000000001 5893.530000000001C724.0400000000001 5897.330000000001 725.7600000000001 5900.51 727.58 5903.870000000001C728.5300000000001 5905.610000000001 729.49 5907.420000000001 730.33 5909.330000000001C739.19 5899.710000000001 738.01 5882.430000000001 737.12 5869.630000000001C737.04 5868.490000000001 736.97 5867.390000000001 736.9 5866.320000000001L738.36 5866.2300000000005C738.4300000000001 5867.290000000001 738.51 5868.39 738.59 5869.530000000001C739.51 5882.81 740.73 5900.820000000001 730.95 5910.800000000001C733.35 5917.000000000001 734.09 5923.660000000001 733.1 5930.090000000001C732.72 5932.550000000001 731.98 5934.960000000001 731.27 5937.280000000001C730.36 5940.27 729.49 5943.090000000001 729.3299999999999 5945.97C729.0899999999999 5950.37 730.3 5954.87 731.4699999999999 5959.2300000000005C731.66 5959.93 731.8499999999999 5960.620000000001 732.0299999999999 5961.31C735.6399999999999 5975.160000000001 736.3799999999999 5987.54 734.2099999999998 5998.110000000001C732.3699999999998 6007.14 728.7699999999998 6016.09 725.2999999999998 6024.76C724.4599999999998 6026.83 723.6399999999999 6028.89 722.8399999999998 6030.93C722.5299999999999 6031.740000000001 722.1799999999998 6032.59 721.8199999999998 6033.47C718.9099999999999 6040.62 715.2899999999998 6049.530000000001 720.5399999999998 6055.400000000001C722.5999999999998 6057.710000000001 725.7399999999999 6059.31 729.3799999999999 6059.920000000001C731.6999999999999 6060.310000000001 733.7499999999999 6060.210000000001 735.4699999999999 6059.630000000001C740.18 6058.070000000001 740.3799999999999 6053.030000000001 740.1499999999999 6046.610000000001C740.1299999999999 6045.790000000001 740.0999999999999 6045.000000000001 740.0899999999999 6044.26C740.0199999999999 6037.27 739.4399999999999 6030.17 738.8799999999999 6023.3L738.7599999999999 6021.83C737.4899999999999 6006 736.5499999999998 5989.2 740.2399999999999 5973.09C740.9099999999999 5970.1900000000005 741.7299999999999 5967.33 742.5199999999999 5964.57C743.8099999999998 5960.049999999999 745.1499999999999 5955.37 745.7899999999998 5950.54C746.6599999999999 5943.87 747.0499999999998 5936.7 747.0399999999998 5927.28C747.0299999999999 5923.61 746.9699999999998 5919.94 746.9099999999999 5916.2699999999995C746.7999999999998 5909.349999999999 746.6899999999998 5902.19 746.9599999999998 5895.129999999999L746.9899999999998 5894.349999999999C747.3299999999998 5885.509999999999 747.7099999999998 5875.49 754.6499999999997 5868.62L756.7199999999998 5870.71C750.5999999999998 5876.76 750.2399999999998 5886.16 749.9199999999998 5894.46L749.8899999999999 5895.25C749.7399999999999 5899.37 749.7099999999999 5903.53 749.7399999999999 5907.67C754.7999999999998 5905.03 760.9499999999999 5900.05 765.9499999999999 5894.49C772.27 5887.46 775.8599999999999 5880.53 775.81 5875.48L777.28 5875.459999999999C777.4 5886.909999999999 760.9399999999999 5903.8099999999995 749.76 5909.319999999999C749.78 5911.6399999999985 749.81 5913.949999999999 749.85 5916.219999999998C749.91 5919.909999999998 749.97 5923.589999999998 749.97 5927.279999999999C749.98 5936.829999999999 749.59 5944.119999999999 748.7 5950.919999999999C748.0300000000001 5955.969999999999 746.6700000000001 5960.749999999999 745.34 5965.379999999999C744.5600000000001 5968.099999999999 743.75 5970.919999999999 743.1 5973.749999999999C739.51 5989.449999999999 740.4300000000001 6005.989999999999 741.69 6021.599999999999L741.8100000000001 6023.0599999999995C742.37 6029.98 742.95 6037.139999999999 743.0300000000001 6044.23C743.0300000000001 6044.95 743.0600000000001 6045.709999999999 743.09 6046.5ZM804.81 6016.25C812.6999999999999 6011.67 823.0799999999999 6006.6 833.27 6007.94L832.88 6010.849999999999C823.55 6009.62 813.77 6014.45 806.29 6018.789999999999C799.17 6022.919999999999 792.55 6027.499999999999 786.4699999999999 6032.459999999999C787.5199999999999 6032.599999999999 788.5699999999999 6032.759999999999 789.5999999999999 6032.919999999999C794.5099999999999 6033.679999999999 799.5899999999999 6034.459999999999 804.4099999999999 6033.299999999999C806.1399999999999 6032.889999999999 807.8499999999999 6032.279999999999 809.4999999999999 6031.69C811.3999999999999 6031.0199999999995 813.3599999999999 6030.33 815.4099999999999 6029.889999999999C819.9199999999998 6028.929999999999 824.5199999999999 6028.639999999999 829.0799999999998 6029.03L828.9599999999998 6030.49C824.5399999999998 6030.12 820.0799999999998 6030.4 815.7099999999998 6031.33C813.7599999999998 6031.74 811.8399999999998 6032.42 809.9899999999998 6033.08C808.6199999999998 6033.57 807.1899999999998 6034.04 805.7399999999998 6034.45C808.8499999999998 6038.97 814.8699999999998 6042.46 819.2099999999998 6043.29L818.9299999999998 6044.73C814.2199999999998 6043.82 807.5799999999998 6040.07 804.2399999999998 6034.83C802.5099999999998 6035.2 800.7699999999998 6035.36 799.0299999999997 6035.36C795.7899999999997 6035.36 792.5499999999997 6034.86 789.3699999999998 6034.37C787.9099999999997 6034.14 786.4199999999997 6033.93 784.9399999999998 6033.75C776.9899999999998 6040.43 770.0199999999999 6047.75 764.1799999999998 6055.58C767.6899999999998 6056.18 771.1099999999998 6056.25 774.3499999999998 6055.71C776.9199999999998 6055.28 779.0899999999998 6054.29 781.3899999999998 6053.2300000000005C782.5199999999998 6052.72 783.6899999999997 6052.18 784.9199999999997 6051.71C790.2899999999997 6049.66 797.6399999999998 6051.19 803.5499999999997 6052.41C804.9199999999997 6052.7 806.2299999999997 6052.97 807.4399999999997 6053.19L807.1899999999997 6054.629999999999C805.9599999999997 6054.419999999999 804.6399999999998 6054.139999999999 803.2499999999997 6053.849999999999C797.5299999999996 6052.669999999999 790.4099999999996 6051.19 785.4399999999997 6053.079999999999C784.2499999999997 6053.539999999999 783.1099999999997 6054.059999999999 781.9999999999997 6054.569999999999C781.4799999999997 6054.799999999998 780.9599999999997 6055.039999999999 780.4299999999996 6055.279999999999C783.2599999999996 6058.589999999999 786.4999999999997 6061.859999999999 790.8899999999996 6063.939999999999L790.2599999999996 6065.269999999999C785.4699999999997 6062.989999999999 782.0099999999996 6059.4299999999985 779.0099999999996 6055.859999999999C777.6199999999997 6056.419999999999 776.1699999999996 6056.8899999999985 774.5899999999997 6057.159999999999C772.9799999999997 6057.419999999999 771.3199999999997 6057.559999999999 769.6399999999996 6057.559999999999C767.5299999999996 6057.559999999999 765.3799999999997 6057.339999999998 763.1899999999996 6056.919999999998C756.9499999999996 6065.529999999998 752.0599999999996 6074.709999999998 748.7299999999996 6084.269999999999C746.1499999999995 6091.6799999999985 743.1999999999996 6102.569999999999 747.4299999999996 6111.489999999999C752.6099999999996 6122.3899999999985 766.3399999999996 6126.359999999999 777.4599999999996 6126.439999999999L777.4399999999996 6129.379999999998C765.4299999999996 6129.289999999998 750.5399999999996 6124.879999999998 744.7799999999996 6112.749999999998C740.0799999999996 6102.8499999999985 743.1999999999996 6091.199999999998 745.9599999999996 6083.299999999998C755.2399999999996 6056.699999999998 776.1399999999995 6032.879999999998 804.8099999999996 6016.249999999998ZM750.25 5975C752.03 5958.81 756.8 5942.87 763.69 5930.13C771.48 5915.71 782.08 5897.9800000000005 794.96 5888.77L796.6700000000001 5891.160000000001C790.07 5895.870000000001 784.0600000000001 5903.010000000001 778.71 5910.77C783.0300000000001 5911.38 790.1800000000001 5912.06 793.99 5910.56C796.48 5909.580000000001 798.9 5908.030000000001 801.25 5906.54C802.26 5905.89 803.27 5905.25 804.27 5904.66L805.01 5905.92C804.03 5906.5 803.04 5907.14 802.04 5907.77C799.63 5909.31 797.14 5910.900000000001 794.52 5911.93C792.63 5912.67 790.05 5912.9400000000005 787.35 5912.9400000000005C784.02 5912.9400000000005 780.49 5912.530000000001 777.7900000000001 5912.120000000001C773.47 5918.550000000001 769.6100000000001 5925.35 766.2700000000001 5931.52C759.5600000000001 5943.9400000000005 754.9100000000001 5959.5 753.1700000000001 5975.320000000001C752.8700000000001 5977.97 752.71 5981.360000000001 754.0400000000001 5984.1C755.5500000000001 5987.2300000000005 758.4800000000001 5988.29 763.83 5987.64C767.99 5987.14 772.0600000000001 5985.97 776.0200000000001 5984.700000000001C777.2400000000001 5980.710000000001 777.9200000000001 5976.550000000001 778.5500000000001 5972.500000000001C778.8800000000001 5970.340000000001 779.23 5968.120000000001 779.6600000000001 5965.9400000000005C780.0500000000001 5963.9400000000005 780.4900000000001 5962.01 780.96 5960.120000000001C772.62 5948.590000000001 776.22 5933.970000000001 779.14 5926.240000000001L780.52 5926.760000000001C777.79 5933.980000000001 774.4499999999999 5947.4000000000015 781.4499999999999 5958.200000000001C786.7399999999999 5938.320000000001 796.4499999999999 5924.590000000001 811.0099999999999 5916.400000000001L811.7299999999999 5917.68C795.7499999999999 5926.67 785.7299999999999 5942.55 781.0999999999999 5966.22C780.67 5968.37 780.3299999999999 5970.58 779.9999999999999 5972.72C779.4099999999999 5976.5 778.7799999999999 5980.37 777.7099999999999 5984.150000000001C778.16 5984.000000000001 778.6099999999999 5983.85 779.06 5983.710000000001C782.8599999999999 5982.450000000001 786.79 5981.150000000001 790.8299999999999 5980.310000000001C791.67 5980.140000000001 792.52 5979.970000000001 793.3699999999999 5979.800000000001C795.5099999999999 5979.370000000001 797.6699999999998 5978.920000000001 799.7999999999998 5978.4000000000015C800.0399999999998 5976.0700000000015 800.0999999999998 5973.730000000001 800.1399999999999 5971.450000000002C800.1999999999998 5967.600000000001 800.2699999999999 5963.620000000002 801.3299999999999 5959.6100000000015C804.93 5945.9000000000015 813.27 5936.190000000001 824.2099999999999 5932.960000000002L824.6299999999999 5934.370000000002C814.1899999999998 5937.450000000002 806.2199999999999 5946.780000000002 802.7499999999999 5959.980000000001C801.7299999999999 5963.8200000000015 801.6699999999998 5967.540000000002 801.5999999999999 5971.480000000001C801.5699999999999 5973.6100000000015 801.5199999999999 5975.800000000001 801.3199999999999 5978.020000000001C805.6899999999999 5976.830000000002 809.8699999999999 5975.160000000002 813.3399999999999 5972.240000000002C818.1899999999999 5968.160000000002 822.28 5962.6100000000015 826.2399999999999 5957.240000000002C827.8499999999999 5955.050000000002 829.5099999999999 5952.800000000002 831.18 5950.710000000002L833.4699999999999 5952.540000000002C831.8399999999999 5954.580000000002 830.2699999999999 5956.720000000002 828.5999999999999 5958.980000000001C824.54 5964.490000000002 820.3499999999999 5970.180000000001 815.2299999999999 5974.490000000002C809.1099999999999 5979.640000000001 801.3999999999999 5981.180000000001 793.9499999999999 5982.670000000002C793.0999999999999 5982.850000000002 792.2599999999999 5983.010000000002 791.43 5983.190000000002C787.55 5983.9900000000025 783.6999999999999 5985.260000000002 779.9799999999999 5986.4900000000025C774.93 5988.160000000003 769.7099999999999 5989.890000000002 764.18 5990.560000000002C763.2199999999999 5990.670000000002 762.17 5990.760000000002 761.0899999999999 5990.760000000002C757.4799999999999 5990.760000000002 753.5199999999999 5989.760000000002 751.3999999999999 5985.380000000002C749.7399999999999 5981.970000000002 749.9099999999999 5978.040000000002 750.2499999999999 5975.000000000002ZM627.39 6004.79C620.99 6009.12 607.9399999999999 6008.14 602 6002.89L603.95 6000.6900000000005C608.86 6005.030000000001 620.47 6005.92 625.74 6002.360000000001C626.49 6001.85 627.21 6001.290000000001 627.91 6000.740000000001C629.3199999999999 5999.64 630.8199999999999 5998.47 632.56 5997.790000000001C626.92 5984.080000000001 605.8499999999999 5983.900000000001 605.8499999999999 5983.900000000001L605.8499999999999 5982.43C605.8499999999999 5982.43 611.8 5982.450000000001 618.17 5984.43C626.13 5986.91 631.51 5991.38 633.93 5997.39C635.41 5997.08 637.05 5997.18 638.9499999999999 5997.9800000000005C641.4699999999999 5999.030000000001 643.42 6000.860000000001 645.3199999999999 6002.620000000001C645.65 6002.930000000001 645.9799999999999 6003.240000000001 646.3199999999999 6003.540000000001L646.79 6003.970000000001C651.4 6008.180000000001 659.98 6016.020000000001 665.56 6012.080000000001C672.3299999999999 6007.300000000001 667.03 5994.470000000001 663.4 5989.000000000001C663.05 5988.460000000001 662.65 5987.930000000001 662.27 5987.390000000001C657.52 5984.310000000001 652.17 5983.490000000002 646.55 5982.6500000000015C643.12 5982.130000000001 639.56 5981.600000000001 636.0999999999999 5980.500000000002C623.6199999999999 5976.540000000002 613.18 5968.560000000002 605.4799999999999 5962.050000000002L606.43 5960.930000000002C612.2199999999999 5965.820000000002 619.5799999999999 5971.560000000002 628.17 5975.730000000002C628.56 5968.560000000002 622.05 5962.080000000003 621.9799999999999 5962.010000000002L623.0099999999999 5960.960000000002C623.3199999999998 5961.270000000002 630.4099999999999 5968.3200000000015 629.5899999999999 5976.4000000000015C631.8299999999999 5977.420000000002 634.1499999999999 5978.340000000001 636.55 5979.100000000001C639.89 5980.160000000002 643.39 5980.690000000001 646.77 5981.200000000002C651.29 5981.880000000002 655.92 5982.600000000001 660.22 5984.6100000000015C654.95 5977.780000000002 648.22 5971.310000000001 640.1 5965.350000000001C629.03 5957.210000000001 616.5400000000001 5950.760000000001 604.7 5944.850000000001L606.01 5942.220000000001C614.62 5946.520000000001 623.56 5951.1100000000015 632.11 5956.430000000001C633.26 5951.210000000001 635.64 5934.9000000000015 623.71 5924.1100000000015L624.69 5923.020000000001C637.58 5934.680000000001 634.57 5952.370000000002 633.4200000000001 5957.250000000001C636.2900000000001 5959.070000000001 639.1100000000001 5960.970000000001 641.84 5962.9800000000005C651.96 5970.42 660.0400000000001 5978.63 665.85 5987.38C667.88 5990.4400000000005 670.4 5995.54 671.37 6000.68C672.5600000000001 6006.97 671.13 6011.740000000001 667.25 6014.4800000000005C665.62 6015.63 663.88 6016.110000000001 662.1 6016.110000000001C655.72 6016.110000000001 648.89 6009.870000000001 644.8100000000001 6006.14L644.34 6005.72C644 6005.41 643.6600000000001 6005.09 643.3100000000001 6004.77C641.5300000000001 6003.110000000001 639.85 6001.540000000001 637.8100000000001 6000.68C634.6600000000001 5999.37 632.7800000000001 6000.66 629.72 6003.05C628.98 6003.63 628.21 6004.2300000000005 627.39 6004.79ZM725.66 5992.9C725.25 5998.21 722.53 6005.49 717.52 6008.95C715.67 6010.22 713.65 6010.86 711.54 6010.86C710.5 6010.86 709.4399999999999 6010.7 708.37 6010.389999999999C704.94 6009.369999999999 702 6006.299999999999 700.32 6001.969999999999C691.9300000000001 5980.32 694.3000000000001 5954.8099999999995 696.47 5941.53C696.71 5940.08 696.96 5938.61 697.21 5937.15C698.5500000000001 5929.3099999999995 699.9300000000001 5921.21 699.39 5913.24C698.91 5906.09 696.27 5899.929999999999 693.48 5893.42C692.79 5891.78 692.08 5890.14 691.4 5888.46C687.93 5879.87 687.28 5872.66 689.4 5866.41L692.1899999999999 5867.36C690.3 5872.91 690.93 5879.45 694.13 5887.36C694.8 5889.0199999999995 695.49 5890.65 696.18 5892.259999999999C699.0699999999999 5899.009999999999 701.81 5905.389999999999 702.3199999999999 5913.039999999999C702.89 5921.359999999999 701.4699999999999 5929.639999999999 700.0999999999999 5937.649999999999C699.8499999999999 5939.0999999999985 699.5999999999999 5940.559999999999 699.3699999999999 5942.009999999998C697.2499999999999 5954.989999999998 694.9199999999998 5979.899999999999 703.06 6000.909999999998C704.41 6004.389999999998 706.65 6006.819999999998 709.2099999999999 6007.569999999998C711.5899999999999 6008.279999999998 713.8199999999999 6007.929999999998 715.8499999999999 6006.529999999998C719.8799999999999 6003.749999999998 722.3599999999999 5997.459999999998 722.7299999999999 5992.679999999998C723.1199999999999 5987.569999999998 721.9699999999999 5981.859999999998 719.2099999999999 5975.2199999999975C718.2499999999999 5972.899999999998 717.04 5970.539999999997 715.8799999999999 5968.2599999999975C713.3899999999999 5963.399999999998 710.8199999999999 5958.379999999997 710.0299999999999 5952.839999999997C708.7099999999998 5943.589999999997 710.8199999999998 5933.919999999997 715.8299999999998 5926.319999999997C716.0799999999998 5925.949999999997 716.3699999999998 5925.599999999997 716.6199999999998 5925.239999999997C717.3999999999997 5919.179999999997 716.5199999999998 5909.359999999997 713.9599999999998 5904.329999999997C712.5999999999998 5901.659999999997 710.7499999999998 5899.159999999997 708.9599999999998 5896.739999999997C706.3899999999998 5893.289999999997 703.7499999999998 5889.709999999997 702.4199999999998 5885.499999999997C700.5199999999999 5879.479999999997 701.5599999999998 5873.0099999999975 702.4899999999999 5867.299999999997L703.9399999999999 5867.529999999997C703.04 5873.079999999997 702.02 5879.369999999997 703.8199999999999 5885.059999999997C705.0699999999999 5889.029999999997 707.53 5892.349999999997 710.14 5895.869999999997C711.96 5898.329999999997 713.85 5900.889999999998 715.27 5903.669999999997C717.62 5908.289999999997 718.62 5916.749999999997 718.29 5923.019999999998C720.65 5920.139999999998 723.4399999999999 5917.569999999998 726.63 5915.339999999997L728.31 5917.749999999997C724.2399999999999 5920.589999999997 720.8699999999999 5924.0099999999975 718.29 5927.929999999998C713.67 5934.949999999998 711.7199999999999 5943.869999999997 712.9399999999999 5952.429999999998C713.66 5957.4699999999975 716.1199999999999 5962.279999999998 718.4899999999999 5966.929999999998C719.68 5969.2599999999975 720.9099999999999 5971.669999999997 721.9199999999998 5974.099999999998C724.8699999999999 5981.169999999997 726.0899999999998 5987.319999999998 725.6599999999999 5992.899999999998ZM809.21 5999.71C819.08 5993.05 831.2 5994.38 837.5400000000001 5995.76L836.9100000000001 5998.63C826.9000000000001 5996.45 817.4000000000001 5997.72 810.8500000000001 6002.14C806.6100000000001 6005 803.5600000000002 6008.93 800.3400000000001 6013.09C797.6700000000002 6016.54 794.9100000000002 6020.1 791.4000000000001 6022.99C785.2300000000001 6028.07 777.2200000000001 6030.91 769.3700000000001 6030.91C768.0600000000002 6030.91 766.7500000000001 6030.83 765.4600000000002 6030.67C763.5800000000002 6030.4400000000005 760.8300000000002 6029.93 758.6200000000001 6028.29C756.0200000000001 6026.37 754.3800000000001 6022.96 754.2400000000001 6019.18C753.8600000000001 6009.12 761.3300000000002 6000.42 774.2300000000001 5995.91C784.4300000000002 5992.34 794.7400000000001 5989.07 803.4700000000001 5986.34C806.0800000000002 5985.53 808.7600000000001 5984.78 811.3600000000001 5984.06C819.6400000000001 5981.75 828.2000000000002 5979.360000000001 835.3600000000001 5974.56L836.9900000000001 5977C829.4500000000002 5982.06 820.6500000000001 5984.51 812.1500000000001 5986.89C809.57 5987.6 806.9100000000001 5988.35 804.3500000000001 5989.14C795.6300000000001 5991.860000000001 785.3600000000001 5995.12 775.2000000000002 5998.68C769.6200000000001 6000.63 756.7000000000002 6006.530000000001 757.1700000000002 6019.070000000001C757.2800000000002 6021.97 758.4800000000001 6024.540000000001 760.3600000000002 6025.9400000000005C762.0200000000002 6027.160000000001 764.2700000000002 6027.56 765.8200000000003 6027.76C770.1800000000003 6028.3 774.7200000000003 6027.81 779.0000000000002 6026.43C784.8400000000003 6014.77 776.2700000000002 6007.530000000001 776.1900000000003 6007.450000000001L777.1200000000002 6006.320000000001C777.2100000000003 6006.400000000001 786.0100000000002 6013.830000000001 780.9400000000003 6025.740000000001C784.0300000000003 6024.530000000001 786.9600000000003 6022.840000000001 789.5400000000003 6020.72C792.7900000000003 6018.04 795.3300000000003 6014.76 798.0200000000003 6011.29C801.2400000000004 6007.13 804.5700000000003 6002.83 809.2100000000004 5999.71ZM708.6 6091.8C702.52 6066.09 685.65 6044.16 664.5600000000001 6034.58C655.4000000000001 6030.42 641.7900000000001 6019.12 637.98 6010.78L635.3100000000001 6012.009999999999C636.5300000000001 6014.669999999999 638.5400000000001 6017.469999999999 640.97 6020.209999999999C634.6600000000001 6019.759999999999 629.14 6021.129999999999 624.72 6023.009999999999C622.73 6016.449999999999 608.97 6013.999999999999 608.36 6013.889999999999L608.11 6015.339999999999C608.25 6015.369999999999 621.92 6017.799999999999 623.37 6023.61C616.97 6026.62 613.19 6030.49 613.13 6030.5599999999995L614.1899999999999 6031.58C614.3 6031.46 625.65 6019.84 642.4599999999999 6021.82C648.8499999999999 6028.5 657.4899999999999 6034.59 663.3399999999999 6037.25C665.04 6038.02 666.6899999999999 6038.9 668.3199999999999 6039.83C661.8799999999999 6039.4 656.2099999999999 6040.9 651.4399999999999 6043.18C643.63 6033.990000000001 620.68 6041.7300000000005 619.6899999999999 6042.070000000001L620.17 6043.460000000001C620.4 6043.380000000001 642.67 6035.860000000001 650.0899999999999 6043.860000000001C640.3899999999999 6048.97 634.81 6057.05 634.7199999999999 6057.18L635.9399999999999 6058C636.0799999999999 6057.8 649.6999999999999 6038.09 671.3199999999999 6041.64C676.0899999999999 6044.71 680.55 6048.46 684.6099999999999 6052.76C673.3199999999999 6051.55 659.1899999999999 6063.59 658.5199999999999 6064.17L659.4799999999999 6065.28C659.6499999999999 6065.139999999999 675.4399999999999 6051.69 686.2299999999999 6054.54C695.3999999999999 6064.87 702.3299999999999 6078.04 705.7399999999999 6092.48C706.8999999999999 6097.389999999999 707.9699999999999 6103.759999999999 705.9199999999998 6109.509999999999C701.5099999999999 6121.879999999999 686.4599999999998 6126.36 674.9099999999999 6126.44L674.9299999999998 6129.379999999999C687.4299999999998 6129.289999999999 703.7699999999999 6124.289999999999 708.6899999999998 6110.499999999999C710.9999999999998 6104.0199999999995 709.8499999999998 6097.099999999999 708.5999999999998 6091.799999999999Z " fill="#5e6883" fill-opacity="1" transform="matrix(1,0,0,1,-602,-5866)"></path></svg>